<svg xmlns="http://www.w3.org/2000/svg" style="display: none;">
  
    <symbol id="diet" viewBox="0 0 512 512">
        <g>
            <g>
                <path class="st0" d="M198,198.9c-4.3-4.7-10.5-7.5-16.8-7.6c-12.9-0.2-23.5,10.1-23.7,22.9c-0.1,4.1,3.2,7.6,7.4,7.6
                    c0,0,0.1,0,0.1,0c4.1,0,7.4-3.3,7.5-7.4c0.1-4.6,3.8-8.3,8.5-8.2c2.3,0,4.4,1,6,2.7c2.8,3.1,7.5,3.3,10.6,0.5
                    C200.5,206.7,200.8,201.9,198,198.9z"/>
            </g>
        </g>
        <g>
            <g>
                <path class="st0" d="M237.9,223.3c-2.3-5.4-6.8-9.7-12.3-11.7c-11.1-4.1-23.4,1.6-27.5,12.7c-1.4,3.9,0.5,8.2,4.4,9.6
                    c0.9,0.3,1.7,0.5,2.6,0.5c3,0,5.9-1.9,7-4.9c1.2-3.3,4.9-5,8.3-3.8c1.7,0.6,3,1.9,3.7,3.5c1.6,3.8,6,5.6,9.8,4
                    C237.7,231.5,239.5,227.1,237.9,223.3z"/>
            </g>
        </g>
        <g>
            <g>
                <path class="st0" d="M286.2,156.9c-2.9-2.9-7.7-2.9-10.6,0l-7.1,7.1c-2.9,2.9-2.9,7.7,0,10.6c1.5,1.5,3.4,2.2,5.3,2.2
                    c1.9,0,3.8-0.7,5.3-2.2l7.1-7.1C289.1,164.6,289.1,159.8,286.2,156.9z"/>
            </g>
        </g>
        <g>
            <g>
                <path class="st0" d="M239.5,253.7h-10c-4.1,0-7.5,3.4-7.5,7.5s3.4,7.5,7.5,7.5h10c4.1,0,7.5-3.4,7.5-7.5S243.7,253.7,239.5,253.7z
                    "/>
            </g>
        </g>
        <g>
            <g>
                <path class="st0" d="M316.2,253.7h-10c-4.1,0-7.5,3.4-7.5,7.5s3.4,7.5,7.5,7.5h10c4.1,0,7.5-3.4,7.5-7.5S320.3,253.7,316.2,253.7z
                    "/>
            </g>
        </g>
        <g>
            <g>
                <path class="st0" d="M511.8,388.9l-2-10.5c-1.2-6.7-7.1-11.6-14-11.6c-0.9,0-1.7,0.1-2.6,0.2l-39.8,7.3l18-12
                    c4.7-3.2,7.1-8.8,6.1-14.4c-0.3-1.5-0.8-3-1.6-4.4l-5.4-9.6c-1.9-3.3-5.1-5.8-8.7-6.8c-1.8-0.5-3.7-0.6-5.5-0.3
                    c2-11.1,3-22.4,3-33.9c0-5.1-3.1-9.5-7.5-11.4c5.7-13.6,6.1-29.2,0.5-43.5c-0.5-1.2-1.1-2.2-2-3.1c-0.9-0.9-1.9-1.6-3.1-2
                    c-6.8-2.7-13.9-4.1-21.2-4.1c-0.9,0-1.9,0-2.8,0.1c-1-20.9-18.4-37.6-39.5-37.6c-2.8,0-5.5,0.3-8.1,0.8c1.8-10.9,0.7-22.3-3.5-33
                    c-0.5-1.2-1.1-2.2-2.1-3.2c-0.9-0.9-1.9-1.6-3.1-2.1c-7.3-2.9-15-4.4-22.8-4.4c-11.8,0-23.1,3.3-32.9,9.5
                    c-3.6-10.3-9.4-20-17.7-28.3c-2.4-2.4-5.6-3.7-9-3.7s-6.6,1.3-9,3.7L239.2,167c-6.7-6-15.6-9.6-25.2-9.6c-2.2,0-4.4,0.2-6.5,0.6
                    c-7.8,1.4-15,5.2-20.5,10.8c-7.1-3.4-15.2-4.6-23-3.2c-1.7,0.3-3.4,0.7-5,1.2v-28c0-19.3-15.5-35.1-34.7-35.4V87.5
                    c5.9-1,10.4-6.1,10.4-12.3v-36c0-6.9-5.6-12.5-12.5-12.5h-61c-6.9,0-12.5,5.6-12.5,12.5v36c0,6.2,4.5,11.3,10.4,12.3v15.9
                    c-19.2,0.3-34.7,16.1-34.7,35.4v218.9C9.3,371.2,0,390.1,0,410.9c0,41,36,74.4,80.3,74.4l300.2-0.1c10.2,0,19.9-4.5,26.4-12.4
                    c6.4-7.6,9.1-17.6,7.5-27.3l60,10.8c0.8,0.1,1.7,0.2,2.5,0.2c3,0,5.9-0.9,8.3-2.7c3.1-2.2,5.2-5.7,5.8-9.5l1.6-10.9
                    c0.2-1.6,0.2-3.1-0.1-4.7c-1-5.6-5.3-10-10.8-11.3l-21.1-4.8l39.7-7.3c3.7-0.7,7-2.8,9.2-5.9C511.6,396.4,512.5,392.7,511.8,388.9
                    z M426,243.7c4.5,0,9,0.7,13.2,2.1c3.8,11.6,2.4,24.1-3.6,34.5h-20.2l6.4-6.5c2.9-2.9,2.9-7.7,0-10.6s-7.7-2.9-10.6,0l-3.4,3.4
                    c-1.6-5.3-4.4-10-8.1-13.8C407.3,247,416.4,243.7,426,243.7z M383.7,206.2c13.5,0,24.6,11.1,24.6,24.6c0,0.3,0,0.5,0,0.8
                    c-7.9,2.6-15.2,6.9-21.4,12.7c-1-0.4-2-0.7-3-1c-2.2-11.9-10.2-21.4-20.7-25.8C367.5,210.7,375.1,206.2,383.7,206.2z M344.1,164.4
                    c5.1,0,10.1,0.8,14.9,2.5c3.9,11.5,3.1,23.9-1.9,34.6c-4.1,3.7-7.4,8.2-9.6,13.3c-1.3,0.1-2.7,0.2-4,0.5c-5.9,1-11.4,3.6-15.9,7.3
                    c-1.6-2.9-3.5-5.5-5.7-7.9l17.2-17.2c2.9-2.9,2.9-7.7,0-10.6c-2.9-2.9-7.7-2.9-10.6,0l-18.8,18.8c-3.6-1.7-7.4-2.9-11.5-3.4
                    c1.8-8.9,6.1-17.4,12.8-24.1C319.9,169.3,331.6,164.4,344.1,164.4z M286.6,280.3h-6.5c-1.1-2.8-3.8-4.8-7-4.8s-5.9,2-7,4.8h-7.6
                    c1.8-2.9,1.4-6.7-1.1-9.2c-2.9-2.9-7.7-2.9-10.6,0l-7.1,7.1c-0.6,0.6-1.1,1.4-1.5,2.1H223c-5.7-8.8-9.2-19.1-9.6-30.3h119
                    c-0.4,11.1-3.9,21.5-9.6,30.3h-15.9c-0.4-0.8-0.8-1.5-1.5-2.1l-7.1-7.1c-2.9-2.9-7.7-2.9-10.6,0
                    C285.2,273.6,284.8,277.5,286.6,280.3z M269.2,235.1c2.8-10.5,12.4-18.2,23.7-18.2c11.3,0,20.9,7.7,23.7,18.2L269.2,235.1
                    L269.2,235.1z M284.5,142.9c7.1,7.7,11.9,16.9,14.2,26.5c-3.8,4.2-7,8.8-9.5,13.7c-1.1-0.7-2.5-1.1-3.9-1.1h-10
                    c-4.1,0-7.5,3.4-7.5,7.5s3.4,7.5,7.5,7.5h8.8c-0.5,2.1-0.9,4.2-1.2,6.3c-3,0.8-5.8,1.9-8.5,3.3c-5-8.6-13.3-15.1-23.1-17.6
                    c0,0,0,0,0-0.1c-0.6-3.4-1.6-6.6-3-9.6L284.5,142.9z M148.9,210.5c-0.4-1.2-0.8-2.5-1-3.8c-2.2-12.4,6.2-24.2,18.6-26.4
                    c1.3-0.2,2.6-0.3,4-0.3c4.9,0,9.7,1.6,13.7,4.6c1.7,1.2,3.7,1.7,5.8,1.4c2-0.4,3.8-1.5,5-3.2c3.5-5.3,8.9-8.8,15.2-9.9
                    c1.3-0.2,2.6-0.3,4-0.3c11.1,0,20.6,7.9,22.5,18.9c0.2,1.3,0.3,2.6,0.3,3.9c0,3.9,3,7.1,6.8,7.5c8.4,0.7,15.5,6,18.8,13.4
                    c-4.4,5.3-7.5,11.8-8.7,18.9h-42.8c-5.3,0-9.9,3.3-11.8,7.9c-9.4-6.4-20.5-9.9-32.1-9.9c-7.3,0-14.4,1.4-21.2,4.1
                    c-1.2,0.5-2.2,1.1-3.1,2c-0.9,0.9-1.6,1.9-2,3.1c-1.7,4.4-2.9,8.8-3.5,13.3c-2.7-3.1-4.6-6.9-5.3-11.1
                    c-1.8-10.2,3.6-20.3,12.9-24.6C148.5,218.2,150.2,214.2,148.9,210.5z M171.3,278.3l2,2.1h-18c-4-9.4-4.7-20.1-1.4-30.1
                    c4.3-1.4,8.7-2.1,13.2-2.1c11.3,0,21.9,4.4,29.9,12.4c1.1,1.1,2.1,2.2,3,3.3c1.3,5.8,3.2,11.3,5.7,16.4h-11.3l-12.6-12.6
                    c-2.9-2.9-7.7-2.9-10.6,0C168.4,270.6,168.4,275.4,171.3,278.3z M139.3,280.3h-26.7c1.2-7.3,5.6-13.5,11.6-17.1
                    c3.6,4.8,8.3,8.7,13.7,11.3C138.3,276.5,138.8,278.4,139.3,280.3z M63.7,41.6h56v31h-56V41.6z M109.3,87.7v15.7H74V87.7H109.3z
                    M39.3,169.2H88c4.1,0,7.5-3.4,7.5-7.5s-3.4-7.5-7.5-7.5H39.3v-15.4c0-11.3,9.1-20.4,20.3-20.4h64c11.2,0,20.3,9.2,20.3,20.4v15.4
                    h-14c-4.1,0-7.5,3.4-7.5,7.5s3.4,7.5,7.5,7.5h14v6.7c-8.6,8.4-13.1,20.8-10.9,33.5c0,0,0,0.1,0,0.1c-12,8.3-18.4,22.9-15.9,37.7
                    c0.1,0.9,0.3,1.7,0.5,2.5c-3.7,2.1-7.1,4.7-10,7.9H39.3V169.2z M39.3,272.5L39.3,272.5h59.8c-0.8,2.5-1.4,5.2-1.6,7.9h-1.3
                    c-6.9,0-12.5,5.6-12.5,12.5c0,11.9,1.1,23.6,3.3,35c-2.2-0.2-4.4-0.3-6.6-0.3c-9.1,0-17.7,1.4-24.3,4.1
                    c-10.1,4-12.9,9.7-13.5,13.6c-1.1,0.5-2.1,1.1-3.2,1.7C39.3,347,39.3,272.5,39.3,272.5z M134.3,364.6c2.7,2.2,4.4,4,5.3,5.3
                    c-0.1,0-0.2,0-0.3,0c-4.2,0-11.9-1.7-20.5-6.5c-3.2-1.8-6.2-3.8-8.6-5.8c-2.8-2.4-6.9-2.4-9.7,0c-2.4,2-5.4,4.1-8.6,5.8
                    c-8.7,4.8-16.3,6.5-20.5,6.5c-0.1,0-0.2,0-0.3,0c1-1.3,2.6-3.2,5.3-5.3c2.4-1.9,3.4-5,2.5-7.9c-0.8-2.9-3.3-5-6.3-5.4
                    c-7.3-0.9-11.9-2.7-14.1-4.1c2.7-1.7,9.6-4.6,21.9-4.6c10.2,0,17.7,2.2,21.3,4.2c2.3,1.3,5.1,1.3,7.3,0c3.6-2,11.1-4.2,21.3-4.2
                    c12.4,0,19.2,2.9,21.9,4.6c-2.2,1.4-6.8,3.2-14.1,4.1c-3,0.4-5.5,2.5-6.3,5.4C130.9,359.6,131.9,362.7,134.3,364.6z M119.3,455.9
                    l0.3,1.4c0.9,4.8,2.8,9.2,5.4,13.1H80.3c-36,0-65.3-26.7-65.3-59.4c0-22.4,13.7-41.9,33.8-52.1c2.3,1.7,5.2,3.2,8.6,4.4
                    c-1.4,2.3-2.3,4.8-2.5,7.4c-0.3,3.5,0.8,6.7,3,9.2c2.9,3.3,7.4,5,13.4,5c7.9,0,18.3-3.1,27.8-8.4c2.2-1.2,4.3-2.5,6.2-3.8
                    c1.9,1.3,4,2.6,6.2,3.8c9.5,5.3,19.9,8.4,27.8,8.4h0c5.9,0,10.4-1.7,13.4-5c2.2-2.5,3.3-5.8,3-9.2c-0.2-2.6-1.2-5.1-2.5-7.4
                    c3.4-1.2,6.3-2.7,8.6-4.4c16,8,27.9,22,32.1,38.6l-53,20.2C125.3,423.5,116.2,439.6,119.3,455.9z M395.4,463.3
                    c-3.7,4.4-9.1,7-14.9,7l-7.9,0l-4.9-26.6c-0.8-4.1-4.7-6.8-8.7-6c-4.1,0.8-6.8,4.7-6,8.7l4.4,23.8l-25.8,0l-3.3-18
                    c-0.8-4.1-4.7-6.8-8.7-6c-4.1,0.8-6.8,4.7-6,8.7l2.8,15.2l-60,0l-4.5-24.4c-0.8-4.1-4.7-6.8-8.7-6c-4.1,0.8-6.8,4.7-6,8.7l4,21.7
                    l-87.6,0c0,0,0,0,0,0c-9.4,0-17.4-6.6-19.1-15.8l-0.3-1.4c-1.7-9.2,3.4-18.2,12.2-21.5l29.5-11.2l2.2,11.9
                    c0.7,3.6,3.8,6.1,7.4,6.1c0.5,0,0.9,0,1.4-0.1c4.1-0.8,6.8-4.7,6-8.7l-2.7-14.5l43.8-16.6c3.9-1.5,5.8-5.8,4.3-9.7
                    c-1.5-3.9-5.8-5.8-9.7-4.3l-20.4,7.7c-5.7-20.2-20.4-37.1-39.8-46.8c-0.6-3.9-3.4-9.6-13.5-13.6c-6.6-2.6-15.3-4.1-24.3-4.1
                    c-6.2,0-12.2,0.7-17.5,1.9v-4.5c0-4.1-3.4-7.5-7.5-7.5c-1.8,0-3.4,0.6-4.6,1.6c-1.2-7.8-1.8-15.8-2-23.8H343
                    c4.1,0,7.5-3.4,7.5-7.5s-3.4-7.5-7.5-7.5h-3.1c4.8-9.8,7.5-20.9,7.5-32.5c0-6.6-5.1-12.1-11.5-12.7c2.8-2.6,6.3-4.4,10.2-5.1
                    c1.1-0.2,2.3-0.3,3.5-0.3c9.7,0,17.9,6.9,19.6,16.5c0.2,1.1,0.3,2.2,0.3,3.4c0,3.9,3,7.1,6.8,7.5c9,0.8,16.3,7.5,17.8,16.4
                    c0.4,2.4,0.4,4.7-0.1,6.9h-8c-4.1,0-7.5,3.4-7.5,7.5s3.4,7.5,7.5,7.5h58.3c-0.2,13.8-2,27.2-5.3,40.2l-40.6,24
                    c-2.5-8.7-8.3-16-16.2-20.4c-8.9-5-19.5-5.8-29.1-2.1l-83.7,31.8c-3.9,1.5-5.8,5.8-4.3,9.7c1.5,3.9,5.8,5.8,9.7,4.3l11-4.2
                    l3.4,18.5c0.7,3.6,3.8,6.1,7.4,6.1c0.5,0,0.9,0,1.4-0.1c4.1-0.8,6.8-4.7,6-8.7l-3.9-21.2l58.4-22.2c5.4-2.1,11.4-1.6,16.5,1.2
                    c5,2.8,8.5,7.7,9.6,13.3l15.2,81.9C400.6,453.1,399.1,458.9,395.4,463.3z M422.2,404.6c-3.5,0.6-6.1,3.7-6.1,7.2
                    c-0.1,3.6,2.4,6.7,5.8,7.5l55.8,12.8l-1.4,9.4l-64.7-11.6l-10.1-54.6l56.4-33.3l4.7,8.3L415,382c-3,2-4.1,5.8-2.8,9.1
                    c1.3,3.3,4.8,5.2,8.3,4.6l74.7-13.7l1.7,9L422.2,404.6z"/>
            </g>
        </g>
    </symbol>


    <symbol id="pizza-box" viewBox="0 0 512 512">
        <path class="st0" d="M488,264h-63.3l14.7-176h8.6c4.4,0,8-3.6,8-8V64c0-13.2-10.8-24-24-24H304c-13.2,0-24,10.8-24,24v16
            c0,4.4,3.6,8,8,8h8.6l4,48H160c-3.7,0-6.9,2.5-7.8,6.1l-16,64c-0.3,1.3-0.3,2.6,0,3.9l13.5,54.1H88c-4.4,0-8,3.6-8,8v80H24
            c-4.4,0-8,3.6-8,8v104c0,4.4,3.6,8,8,8h64c4.4,0,8-3.6,8-8v-8h167c7.2,0,14.3-1.8,20.7-5.3L362,408h126c4.4,0,8-3.6,8-8V272
            C496,267.6,492.4,264,488,264z M480,328H278.7c0.3-5.5-0.7-11-2.8-16H328c3.7,0,6.9-2.5,7.8-6.1l6.5-25.9H480V328z M270.2,296l-4-16
            h59.5l-4,16H270.2z M268.4,350.9c2.1-2.1,3.9-4.4,5.4-6.9h52l-4,16h-51.5l-2.2-8.7L268.4,350.9z M296,64c0-4.4,3.6-8,8-8h128
            c4.4,0,8,3.6,8,8v8H296V64z M423.3,88l-1.3,16H314l-1.3-16H423.3z M315.4,120h105.3l-12,144h-62.4l13.5-54.1c0.3-1.3,0.3-2.6,0-3.9
            l-16-64c-0.9-3.6-4.1-6.1-7.8-6.1h-19.3L315.4,120z M166.2,152h163.5l12,48H154.2L166.2,152z M261.8,216l-4,16h-19.5l-4-16H261.8z
            M154.2,216h63.5l6.5,25.9c0.9,3.6,4.1,6.1,7.8,6.1h32c3.7,0,6.9-2.5,7.8-6.1l6.5-25.9h63.5l-12,48H166.2L154.2,216z M249.8,280
            l3,12c-10.7-2.9-22.1-0.7-30.9,6.1L183.5,328H96v-48H249.8z M96,360v-16h34.2c-10.5,7.4-17.1,19.2-18.1,32H96V360z M80,456H32v-88
            h48V456z M276.1,436.7c-4,2.2-8.5,3.3-13,3.3H96v-48h19.2c7.1,0,12.8-5.7,12.8-12.8c0-15,12.2-27.2,27.2-27.2h19.7
            c2.5,0,4.9-0.8,6.9-2.4l49.9-38.8c8.4-6.5,20.5-5,27,3.4c6,7.7,5.3,18.5-1.6,25.4l-49.3,49.3c-4.4,4.4-4.4,11.5,0,15.9
            c2.1,2.1,5,3.3,7.9,3.3h112.8L276.1,436.7z M227.3,392l27.6-27.6l1.4,5.5c0.9,3.6,4.1,6.1,7.8,6.1h64c3.7,0,6.9-2.5,7.8-6.1
            l6.5-25.9H480v48H227.3z"/>
    </symbol>


    <symbol id="menu" viewBox="0 0 512 512">
        <g>
            <path class="st0" d="M198.5,49.4c4.6,0,8.4-3.8,8.4-8.4s-3.8-8.4-8.4-8.4s-8.4,3.8-8.4,8.4S193.9,49.4,198.5,49.4z"/>
            <path class="st0" d="M148.4,91.9h100.4c4.1,0,7.5-3.4,7.5-7.5c0-4.1-3.4-7.5-7.5-7.5H148.4c-4.1,0-7.5,3.4-7.5,7.5
                C140.9,88.5,144.2,91.9,148.4,91.9L148.4,91.9z"/>
            <path class="st0" d="M290.2,373.5v14.4c0,4.1,3.4,7.5,7.5,7.5s7.5-3.4,7.5-7.5v-14.4c0-4.1-3.4-7.5-7.5-7.5
                C293.6,366,290.2,369.3,290.2,373.5z"/>
            <path class="st0" d="M439.8,373.5v14.4c0,4.1,3.4,7.5,7.5,7.5s7.5-3.4,7.5-7.5v-14.4c0-4.1-3.4-7.5-7.5-7.5
                S439.8,369.3,439.8,373.5z"/>
            <path class="st0" d="M386.6,382.5c-7.5,8.5-20.7,8.5-28.1,0c-2.7-3.1-7.5-3.4-10.6-0.7c-3.1,2.7-3.4,7.5-0.7,10.6
                c13.4,15.4,37.3,15.4,50.7,0c2.7-3.1,2.4-7.9-0.7-10.6C394,379,389.3,379.4,386.6,382.5L386.6,382.5z"/>
            <path class="st0" d="M116.8,214.8l42.1-21.6c3.7-1.9,5.1-6.4,3.3-10.1c-1.9-3.7-6.4-5.1-10.1-3.3l-31.2,16v-9.3
                c0-4.1-3.4-7.5-7.5-7.5s-7.5,3.4-7.5,7.5v21.6C105.9,213.8,111.9,217.3,116.8,214.8L116.8,214.8z"/>
            <path class="st0" d="M194.8,204.8H261c4.1,0,7.5-3.4,7.5-7.5s-3.4-7.5-7.5-7.5h-66.2c-4.1,0-7.5,3.4-7.5,7.5
                S190.6,204.8,194.8,204.8z"/>
            <path class="st0" d="M116.8,283.4l42.1-21.6c3.7-1.9,5.1-6.4,3.3-10.1s-6.4-5.1-10.1-3.3l-31.2,16v-9.3c0-4.1-3.4-7.5-7.5-7.5
                s-7.5,3.4-7.5,7.5v21.6C105.9,282.3,111.9,285.9,116.8,283.4L116.8,283.4z"/>
            <path class="st0" d="M194.8,273.4H261c4.1,0,7.5-3.4,7.5-7.5c0-4.1-3.4-7.5-7.5-7.5h-66.2c-4.1,0-7.5,3.4-7.5,7.5
                C187.3,270.1,190.6,273.4,194.8,273.4z"/>
            <path class="st0" d="M113.4,352.8c3.2,0,1,0.1,45.5-22.4c3.7-1.9,5.1-6.4,3.3-10.1s-6.4-5.1-10.1-3.3l-31.2,16v-9.3
                c0-4.1-3.4-7.5-7.5-7.5s-7.5,3.4-7.5,7.5v21.6C105.9,349.5,109.3,352.8,113.4,352.8L113.4,352.8z"/>
            <path class="st0" d="M68.3,497.3h230.2c22.7,13.9,50.7,15.3,74,3.7c25.9,12.9,57.6,9.7,81.1-8.5c14.2-11,26.1-23.7,35.4-37.9
                c2.3-3.5,1.3-8.1-2.1-10.4s-8.1-1.3-10.4,2.1c-8.4,12.8-19.2,24.3-32.1,34.3c-19,14.7-45.3,17.9-67.3,5.9c-2.9-1.6-6.3-1.6-9.2,0
                c-0.3,0.2-0.6,0.3-0.9,0.5c-32.8,17.4-62.4-3.4-62.3-3.4c-3-2-5.3-3.8-8.4-6.3c-93.7-78-42.1-223.9,73.2-175.2
                c4.3,1.8,5.5-0.5,18-4.5c83.2-26.4,128.8,52.3,101.8,123.7c-1.5,3.9,0.5,8.2,4.4,9.7s8.2-0.5,9.7-4.4
                c22.5-59.6-0.1-126.7-54.7-144.7c7.9-17.1,8.4-36.3,1-52c-0.7-1.6-2-2.9-3.6-3.6c-15.2-7.1-32.9-6.9-49-0.3v-102
                c0-37.7-30.7-68.3-68.3-68.3h-20c-4.7-12-16.4-20.6-30-20.6h-40c-4.3-18.3-20.8-31.8-40.2-31.8S162.7,16.7,158.4,35h-40
                c-13.7,0-25.3,8.5-30,20.6h-20C30.7,55.6,0,86.2,0,123.9v305C0,466.6,30.7,497.3,68.3,497.3z M377.4,285c-1,0.4-3.3,1.2-4.9,1.9
                c-19.6-7.8-40.6-11.9-61.2-8.8c-6.4-12.1-8.4-26.7-3.4-39.4C337.6,227.2,373.6,252.4,377.4,285L377.4,285z M437.2,238.7
                c4.7,12.1,3.4,26.6-3.5,39.5c-13.2-2-27.2-1.2-41.7,2.4c-1.5-9.4-5.2-18.6-10.1-26.2C397.8,237.2,420.4,232.2,437.2,238.7z
                M382.1,123.9v110.4c-2.9,2.1-6.6,5.2-9.6,8.3c-7.1-7.3-15.8-13.2-25.1-16.9v-97.4c0-12.3-10-22.4-22.4-22.4h-14.5
                c0.3-1.8,0.5-3.6,0.5-5.5V70.6h17.8C358.2,70.6,382.1,94.5,382.1,123.9z M118.3,50h46.5c4,0,7.3-3.1,7.5-7.1
                c0.8-13.9,12.3-24.7,26.2-24.7s25.4,10.9,26.2,24.7c0.2,4,3.5,7.1,7.5,7.1h46.5c9.5,0,17.2,7.8,17.2,17.2
                c-0.1,34.4,1.1,36.9-3,42.9c-3.2,4.6-8.6,7.5-14.2,7.5c-170.6,0-161.3,0.2-163.9-0.3c-8.2-1.7-13.8-8.8-13.8-16.9
                c0-36.1-0.1-33.4,0.2-35.5C102.4,56.5,109.6,50,118.3,50L118.3,50z M15,123.9c0-29.4,23.9-53.3,53.3-53.3h17.8v29.8
                c0,1.9,0.2,3.7,0.5,5.5H72.1c-12.3,0-22.4,10-22.4,22.4v90.1c0,4.1,3.4,7.5,7.5,7.5s7.5-3.4,7.5-7.5v-90.1c0-4.1,3.3-7.4,7.4-7.4
                h21.4c6.1,7.5,15.2,11.7,24.8,11.7c173.7,0,162.6,0.4,168.5-1c6.5-1.7,12.4-5.4,16.8-10.7H325c4.1,0,7.4,3.3,7.4,7.4v93.3
                c-11.4-1.7-22.2-0.1-31.4,3.7c-2.3,1-4.4,1.8-5.6,4.5c-7,14.9-7.3,33.9,1,51.9c-23.2,7.8-40.7,24.3-51.3,45.3h-50.2
                c-4.1,0-7.5,3.4-7.5,7.5c0,4.1,3.4,7.5,7.5,7.5h44c-0.1,0.4-0.8,2.6-1.2,3.8v0c-8.4,28.6-5.2,59.3,6.2,86.1H72.1
                c-4.1,0-7.4-3.3-7.4-7.4V248.4c0-4.1-3.4-7.5-7.5-7.5s-7.5,3.4-7.5,7.5v176.1c0,12.3,10,22.4,22.4,22.4h179.2
                c7.1,12.4,16.5,24.4,28.2,35.4H68.3c-29.4,0-53.3-23.9-53.3-53.3L15,123.9z"/>
        </g>
    </symbol>


    <symbol id="salad" viewBox="0 0 512 512">
        <g>
            <path class="st0" d="M263,262.3l15.3,5.9c0.9,0.3,1.8,0.5,2.7,0.5c3,0,5.9-1.8,7-4.8c1.5-3.9-0.5-8.2-4.3-9.7l-15.3-5.9
                c-3.9-1.5-8.2,0.5-9.7,4.3C257.2,256.5,259.2,260.9,263,262.3L263,262.3z"/>
            <path class="st0" d="M484.6,288.8h-4.1c7.2-4.7,13.3-10.4,17.2-17.4c4.3-8,5.2-16.6,2.5-25.7c-2.5-8.4-7.2-14.8-14.2-19.1
                c3.4-8.5,5.1-17.7,5.1-26.9c0-40.4-32.8-73.2-73.2-73.2c-19.5,0-38,7.8-51.7,21.4l-34.7-49.7c-1.2-1.7-3.1-2.9-5.2-3.2
                c-2.1-0.3-4.2,0.4-5.8,1.8c-9.4,8.1-17.1,18-22.6,29c-7.7,0.8-14.9,4.1-20.6,7.6c-1.3-12-4.3-29.3-11.6-43.2
                c-1.9-3.7-6.4-5.1-10.1-3.2c-3.7,1.9-5.1,6.4-3.2,10.1c10.5,20.2,10.8,50.6,10.8,50.9c0,3,1.9,5.8,4.7,6.9c0.9,0.4,1.9,0.6,2.8,0.6
                c2,0,3.9-0.8,5.3-2.2c0.1-0.1,6.9-6.8,15.3-10.4c-1,3.5-1.8,7.1-2.3,10.8c-2.8,18.1-0.2,36.4,7.2,52.9L229,236.8
                c-15.3-26.5-31.2-39-47.2-37.2c-4.5,0.5-8.2,1.7-11.1,3.1c-12.1-19.3-16.8-34.3-12.6-40.6c1.6-2.4,6.3-9.6,20.7-6.3
                c8.5,1.9,15.8,6.5,15.8,6.5c2.6,1.6,5.8,1.6,8.3-0.2c2.5-1.7,3.7-4.8,3-7.8c-1-4.7-2.3-12.7-2.8-21.8c0-0.2,0-0.4,0-0.6
                c-0.7-14.7,0.5-31.9,7.8-42.1c3.8-5.3,9-8.3,15.9-9c2.1-0.2,4.1-0.2,6,0c4.1,0.5,7.9-2.4,8.4-6.5c0.5-4.1-2.4-7.9-6.5-8.4
                c-3.1-0.4-6.3-0.4-9.6,0c-11.2,1.2-20.1,6.3-26.4,15.2c-6.2,8.6-9.8,20.7-10.6,35.8c-11.7-7.5-25.3-11.6-39.5-11.6
                c-40.4,0-73.2,32.8-73.2,73.2c0,14.2,4.1,27.9,11.8,39.8c-0.5,4.1-0.4,8.2,0.1,12.2c-14.6-4.2-37.9-8.6-54.4-0.7
                c-8.9,4.2-14.8,11.3-17.7,21.1c-4.9,16.7,2.5,29.1,12.9,37.9h-0.8C12.3,288.8,0,301.1,0,316.2v1.6c0,15.1,12.3,27.4,27.4,27.4h24.8
                l60.1,58.6c-4.4,4.6-7,10.8-7,17.6v0.2c0,13.8,11.3,24.6,25.6,24.6h250.2c14.4,0,25.6-10.8,25.6-24.6v-0.2c0-6.8-2.7-13-7-17.6
                l60.1-58.6h24.8c15.1,0,27.4-12.3,27.4-27.4v-1.6C512,301.1,499.7,288.8,484.6,288.8L484.6,288.8z M484.6,264.3
                c-5,9.2-19.3,17.9-39.3,23.7c-0.7,0.2-1.3,0.5-1.9,0.8H304c14.4-21.6,19.2-47.8,13.4-73.1c5.3-4.7,10.2-6.8,14.6-6.3
                c7.4,0.8,8.9,3.7,9.4,4.7c3.2,6-1.2,18.1-3.8,23.1c-1.8,3.4-0.7,7.7,2.5,9.8c3.2,2.1,7.6,1.4,10-1.6c12.2-15.3,31.1-33.6,44.3-39.9
                c0.6-0.2,1.1-0.4,1.6-0.7c3.8-1.6,7-2.1,9.4-1c3.7,1.6,8.6,5,8.1,16c-0.3,7.5-3.1,14.4-3.1,14.4c-1.2,2.8-0.5,6,1.6,8.2
                c2.1,2.1,5.4,2.8,8.2,1.6c10.1-4.2,39.8-13.3,55.8-5.6c5,2.4,8.2,6.2,9.8,11.8C487.4,255.2,486.9,259.9,484.6,264.3L484.6,264.3z
                M254.8,283.5l-6.7-15c-1.7-3.8-6.1-5.5-9.9-3.8s-5.5,6.1-3.8,9.9l6.4,14.2h-23.6l2.8-7.2c1.5-3.9-0.5-8.2-4.3-9.7
                c-3.9-1.5-8.2,0.5-9.7,4.3l-4.8,12.6h-34.9c-0.1-0.2-3.1-3.8-4.3-5.5L303,220.2c5,23.4-1,48.5-16.5,67.1c-0.4,0.5-0.7,1-1,1.5
                h-30.4C255.7,287.1,255.6,285.2,254.8,283.5L254.8,283.5z M392.3,185.3c5.2-9.2,14.9-15,25.7-15c16.3,0,29.5,13.2,29.5,29.5
                c0,9-4,17.3-11,23c-0.3,0.2-0.5,0.5-0.8,0.7c-2.7,0.6-5.3,1.3-7.6,2c1.7-13.1-0.9-28.7-16.7-35.5c-4.8-2.1-10.3-2.3-16.3-0.6
                L392.3,185.3z M418,141.6c32.1,0,58.2,26.1,58.2,58.2c0,7.5-1.4,14.8-4.2,21.6c-4.7-0.9-9.7-1.2-14.6-1c3.3-6.3,5.1-13.3,5.1-20.6
                c0-24.5-20-44.5-44.5-44.5c-13.8,0-26.6,6.4-34.9,16.9l-8.1-11.6C386.1,148.5,401.6,141.6,418,141.6L418,141.6z M324.3,114.1
                l56.9,81.6c-5.6,3.5-11.6,8.1-18.1,14c-2.1,1.9-4,3.8-5.9,5.6c-0.4-2.8-1.2-5.6-2.6-8.2c-2.6-5-8.4-11.2-21-12.6
                c-7.7-0.9-15.4,1.6-23,7.3c-6.7-14.2-9.1-30.1-6.7-45.8C306.4,140.3,313.5,125.7,324.3,114.1L324.3,114.1z M160,213.9
                c-0.9,2.1-1.5,4.3-1.8,6.5c-1.9-1.9-3.9-3.8-5.9-5.6c-10.4-9.4-19.5-15.7-27.7-19c-0.1-0.1-0.1-0.3-0.2-0.4
                c-3.5-5-5.3-10.8-5.3-16.9c0-16.3,13.2-29.5,29.5-29.5c0.3,0,0.5,0,0.8,0c-1.4,1.4-2.7,3-3.9,4.8
                C137.2,166.6,141.9,186.2,160,213.9L160,213.9z M90.4,178.6c0-32.1,26.1-58.2,58.2-58.2c14.9,0,28.9,5.6,39.8,15.7
                c0.2,2.5,0.4,4.9,0.7,7.1c-5.6-1.9-11.9-3.2-18.1-3.1c-6.8-3.9-14.4-6-22.4-6c-24.5,0-44.5,20-44.5,44.5c0,5.3,0.9,10.5,2.8,15.4
                c-1,0.3-1.9,0.6-2.8,1c-3.7,1.6-6.7,3.7-9.1,6.1C92,194.1,90.4,186.4,90.4,178.6L90.4,178.6z M56.5,288.3
                c-21.6-9-30.6-20.2-26.8-33.1c1.6-5.5,4.8-9.4,9.8-11.8c15.9-7.6,45.7,1.5,55.8,5.6c2.8,1.2,6,0.5,8.1-1.6s2.8-5.3,1.7-8.1
                c0-0.1-2.8-6.9-3.1-14.4c-0.5-11,4.4-14.4,8.1-16c10.7-4.6,39,21.3,55.4,41.7c2.4,3,6.7,3.7,10,1.6c3.2-2.1,4.3-6.4,2.5-9.8
                c-2.6-4.9-6.9-17.1-3.8-23.1c0.5-1,2-3.9,9.4-4.7c9-1,20.4,9.3,31.8,28.4l-67.5,30.2c-1.9,0.9-3.4,2.5-4.1,4.5s-0.4,4.2,0.6,6.1
                c1,1.7,2,3.4,3.1,5H57.5C57.2,288.6,56.8,288.4,56.5,288.3L56.5,288.3z M391.7,421.6c0,6.3-5.4,9.6-10.6,9.6H130.9
                c-5.3,0-10.6-3.3-10.6-9.6v-0.2c0-5.9,4.8-10.6,10.6-10.6h250.2c5.9,0,10.6,4.8,10.6,10.6V421.6z M497,317.8
                c0,6.8-5.5,12.4-12.4,12.4H143.5c-4.1,0-7.5,3.4-7.5,7.5s3.4,7.5,7.5,7.5h294.9l-51.9,50.6h-5.3H130.9h-5.3l-51.9-50.6h39.8
                c4.1,0,7.5-3.4,7.5-7.5s-3.4-7.5-7.5-7.5H27.4c-6.8,0-12.4-5.5-12.4-12.4v-1.6c0-6.8,5.5-12.4,12.4-12.4h457.3
                c6.8,0,12.4,5.5,12.4,12.4V317.8z"/>
            <path class="st0" d="M328.2,181.2c0.1,0,0.2,0,0.3,0l14.1-0.6c4.1-0.2,7.4-3.6,7.2-7.8c-0.2-4.1-3.7-7.3-7.8-7.2l-14.1,0.6
                c-4.1,0.2-7.4,3.6-7.2,7.8C320.8,178.1,324.2,181.2,328.2,181.2L328.2,181.2z"/>
        </g>
    </symbol>


    <symbol id="percentage" viewBox="0 0 512 512">
        <g>
            <path class="st0" d="M512,256c0-7.1-3.2-13.6-8.8-17.9l-16.3-12.5l12.5-16.3c4.3-5.6,5.7-12.7,3.9-19.5c-1.8-6.8-6.6-12.3-13.1-15
                l-19-7.9l7.9-19c2.7-6.5,2.2-13.8-1.3-19.9s-9.6-10.1-16.6-11.1l-20.4-2.7l2.7-20.4c0.9-7-1.4-13.9-6.4-18.8s-11.9-7.3-18.9-6.4
                l-20.4,2.7l-2.7-20.4c-0.9-7-5-13-11.1-16.6c-6.1-3.5-13.3-4-19.9-1.3l-19,7.9l-7.9-19c-2.7-6.5-8.2-11.3-15-13.1
                c-6.8-1.8-13.9-0.4-19.5,3.9l-16.3,12.5L273.9,8.8C269.6,3.2,263.1,0,256,0s-13.6,3.2-17.9,8.8l-12.5,16.3l-16.3-12.5
                c-5.6-4.3-12.7-5.7-19.5-3.9c-6.8,1.8-12.3,6.6-15,13.1l-7.9,19l-19-7.9c-6.5-2.7-13.8-2.2-19.9,1.3c-6.1,3.5-10.1,9.6-11.1,16.6
                l-2.7,20.4l-20.4-2.7C86.8,67.7,80,70,75,75s-7.3,11.9-6.4,18.9l2.7,20.4l-20.4,2.7c-7,0.9-13,5-16.6,11.1
                c-3.5,6.1-4,13.3-1.3,19.9l7.9,19l-19,7.9c-6.5,2.7-11.3,8.2-13.1,15c-1.8,6.8-0.4,13.9,3.9,19.5l12.5,16.3L8.8,238.1
                C3.2,242.4,0,248.9,0,256c0,7.1,3.2,13.6,8.8,17.9l16.3,12.5l-12.5,16.3c-4.3,5.6-5.7,12.7-3.9,19.5c1.8,6.8,6.6,12.3,13.1,15
                l19,7.9l-7.9,19c-2.7,6.5-2.2,13.8,1.3,19.9s9.6,10.1,16.6,11.1l20.4,2.7l-2.7,20.4c-0.9,7,1.4,13.9,6.4,18.9s11.9,7.3,18.9,6.4
                l20.4-2.7l2.7,20.4c0.9,7,5,13,11.1,16.6c6.1,3.5,13.3,4,19.9,1.3l19-7.9l7.9,19c2.7,6.5,8.2,11.3,15,13.1
                c6.8,1.8,13.9,0.4,19.5-3.9l16.3-12.5l12.5,16.3c4.3,5.6,10.8,8.8,17.9,8.8c7.1,0,13.6-3.2,17.9-8.8l12.5-16.3l16.3,12.5
                c5.6,4.3,12.7,5.7,19.5,3.9c6.8-1.8,12.3-6.6,15-13.1l7.9-19l19,7.9c6.5,2.7,13.8,2.2,19.9-1.3c6.1-3.5,10.1-9.6,11.1-16.6
                l2.7-20.4l20.4,2.7c7,0.9,13.9-1.4,18.9-6.4c5-5,7.3-11.9,6.4-18.9l-2.7-20.4l20.4-2.7c7-0.9,13-5,16.6-11.1s4-13.3,1.3-19.9
                l-7.9-19l19-7.9c6.5-2.7,11.3-8.2,13.1-15c1.8-6.8,0.4-13.9-3.9-19.5l-12.5-16.3l16.3-12.5C508.8,269.6,512,263.1,512,256L512,256z
                M494.1,262l-22.3,17.1c-1.6,1.2-2.6,3-2.9,5s0.3,4,1.5,5.5l17.1,22.3c1.4,1.9,1.9,4.2,1.3,6.5c-0.6,2.3-2.2,4.1-4.4,5l-26,10.8
                c-3.8,1.6-5.6,6-4.1,9.8l10.8,26c0.9,2.2,0.7,4.6-0.4,6.6s-3.2,3.4-5.5,3.7l-27.9,3.7c-4.1,0.5-7,4.3-6.5,8.4l3.7,27.9
                c0.3,2.3-0.5,4.6-2.1,6.3s-3.9,2.4-6.3,2.1l-27.9-3.7c-2-0.3-4,0.3-5.5,1.5s-2.6,3-2.9,5l-3.7,27.9c-0.3,2.3-1.7,4.3-3.7,5.5
                c-2,1.2-4.5,1.3-6.6,0.4l-26-10.8c-3.8-1.6-8.2,0.2-9.8,4.1l-10.8,26c-0.9,2.2-2.7,3.8-5,4.4c-2.3,0.6-4.6,0.1-6.5-1.3l-22.3-17.1
                c-1.6-1.2-3.6-1.7-5.5-1.5c-2,0.3-3.8,1.3-5,2.9L262,494.1c-1.4,1.9-3.6,2.9-6,2.9s-4.5-1.1-6-2.9l-17.1-22.3c-1.2-1.6-3-2.6-5-2.9
                c-0.3,0-0.7-0.1-1-0.1c-1.6,0-3.2,0.5-4.6,1.5l-22.3,17.1c-1.9,1.4-4.2,1.9-6.5,1.3c-2.3-0.6-4.1-2.2-5-4.4l-10.8-26
                c-1.6-3.8-6-5.6-9.8-4.1l-26,10.8c-2.2,0.9-4.6,0.7-6.6-0.4c-2-1.2-3.4-3.2-3.7-5.5l-3.7-27.9c-0.3-2-1.3-3.8-2.9-5
                c-1.6-1.2-3.6-1.7-5.5-1.5l-27.9,3.7c-2.3,0.3-4.6-0.5-6.3-2.1c-1.7-1.7-2.4-4-2.1-6.3l3.7-27.9c0.5-4.1-2.4-7.9-6.5-8.4l-27.9-3.7
                c-2.3-0.3-4.3-1.7-5.5-3.7s-1.3-4.5-0.4-6.6l10.8-26c1.6-3.8-0.2-8.2-4.1-9.8l-26-10.8c-2.2-0.9-3.8-2.7-4.4-5
                c-0.6-2.3-0.1-4.6,1.3-6.5l17.1-22.3c1.2-1.6,1.7-3.6,1.5-5.5c-0.3-2-1.3-3.8-2.9-5L17.9,262c-1.9-1.4-2.9-3.6-2.9-6s1.1-4.5,2.9-6
                l22.3-17.1c1.6-1.2,2.6-3,2.9-5c0.3-2-0.3-4-1.5-5.5l-17.1-22.3c-1.4-1.9-1.9-4.2-1.3-6.5c0.6-2.3,2.2-4.1,4.4-5l26-10.8
                c1.8-0.8,3.3-2.2,4.1-4.1s0.8-3.9,0-5.7l-10.8-26c-0.9-2.2-0.7-4.6,0.4-6.6c1.2-2,3.2-3.4,5.5-3.7l27.9-3.7c4.1-0.5,7-4.3,6.5-8.4
                l-3.7-27.9c-0.3-2.3,0.5-4.6,2.1-6.3s4-2.4,6.3-2.1l27.9,3.7c4.1,0.5,7.9-2.4,8.4-6.5l3.7-27.9c0.3-2.3,1.7-4.3,3.7-5.5
                c2-1.2,4.5-1.3,6.6-0.4l26,10.8c3.8,1.6,8.2-0.2,9.8-4.1l10.8-26c0.9-2.2,2.7-3.8,5-4.4c2.3-0.6,4.6-0.1,6.5,1.3l22.3,17.1
                c3.3,2.5,8,1.9,10.5-1.4L250,17.9c1.4-1.9,3.6-2.9,6-2.9s4.5,1.1,6,2.9l17.1,22.3c1.2,1.6,3,2.6,5,2.9c2,0.3,4-0.3,5.5-1.5
                l22.3-17.1c1.9-1.4,4.2-1.9,6.5-1.3c2.3,0.6,4.1,2.2,5,4.4l10.8,26c1.6,3.8,6,5.6,9.8,4.1l26-10.8c2.2-0.9,4.6-0.7,6.6,0.4
                c2,1.2,3.4,3.2,3.7,5.5l3.7,27.9c0.5,4.1,4.3,7,8.4,6.5l27.9-3.7c2.3-0.3,4.6,0.5,6.3,2.1c1.7,1.7,2.4,4,2.1,6.3l-3.7,27.9
                c-0.5,4.1,2.4,7.9,6.5,8.4l27.9,3.7c2.3,0.3,4.3,1.7,5.5,3.7s1.3,4.5,0.4,6.6l-10.8,26c-1.6,3.8,0.2,8.2,4.1,9.8l26,10.8
                c2.2,0.9,3.8,2.7,4.4,5c0.6,2.3,0.1,4.6-1.3,6.5l-17.1,22.3c-1.2,1.6-1.7,3.6-1.5,5.5s1.3,3.8,2.9,5l22.3,17.1
                c1.9,1.4,2.9,3.6,2.9,6S495.9,260.5,494.1,262L494.1,262z"/>
            <path class="st0" d="M261.3,271.9c-2.9-2.9-7.7-2.9-10.6,0l-88,88c-2.9,2.9-7.7,2.9-10.6,0c-2.9-2.9-2.9-7.7,0-10.6l197.3-197.3
                c1.4-1.4,3.3-2.2,5.3-2.2c2,0,3.9,0.8,5.3,2.2c2.9,2.9,2.9,7.7,0,10.6l-88,88c-2.9,2.9-2.9,7.7,0,10.6c2.9,2.9,7.7,2.9,10.6,0
                l88-88c8.8-8.8,8.8-23,0-31.8c-4.3-4.3-9.9-6.6-15.9-6.6c-6,0-11.7,2.3-15.9,6.6L141.4,338.7c-8.8,8.8-8.8,23,0,31.8
                c4.4,4.4,10.1,6.6,15.9,6.6s11.5-2.2,15.9-6.6l88-88C264.2,279.6,264.2,274.8,261.3,271.9L261.3,271.9z"/>
            <path class="st0" d="M330.2,262.7c-37.2,0-67.5,30.3-67.5,67.5s30.3,67.5,67.5,67.5s67.5-30.3,67.5-67.5S367.5,262.7,330.2,262.7z
                M330.2,382.7c-28.9,0-52.5-23.6-52.5-52.5s23.6-52.5,52.5-52.5s52.5,23.6,52.5,52.5S359.2,382.7,330.2,382.7z"/>
            <path class="st0" d="M330.2,292.7c-20.7,0-37.5,16.8-37.5,37.5s16.8,37.5,37.5,37.5s37.5-16.8,37.5-37.5S350.9,292.7,330.2,292.7z
                M330.2,352.7c-12.4,0-22.5-10.1-22.5-22.5s10.1-22.5,22.5-22.5s22.5,10.1,22.5,22.5S342.7,352.7,330.2,352.7z"/>
            <path class="st0" d="M249.3,181.8c0-37.2-30.3-67.5-67.5-67.5s-67.5,30.3-67.5,67.5s30.3,67.5,67.5,67.5S249.3,219,249.3,181.8z
                M129.3,181.8c0-28.9,23.6-52.5,52.5-52.5s52.5,23.6,52.5,52.5s-23.6,52.5-52.5,52.5S129.3,210.7,129.3,181.8z"/>
            <path class="st0" d="M219.3,181.8c0-20.7-16.8-37.5-37.5-37.5s-37.5,16.8-37.5,37.5s16.8,37.5,37.5,37.5S219.3,202.4,219.3,181.8z
                M159.3,181.8c0-12.4,10.1-22.5,22.5-22.5s22.5,10.1,22.5,22.5s-10.1,22.5-22.5,22.5S159.3,194.2,159.3,181.8z"/>
        </g>
    </symbol>


    <symbol id="elderly" viewBox="0 0 480 480">
        <g>
            <g>
                <path class="st0" d="M372.1,376.6c-4.5-7.2-11.7-12.2-20-14.1h0c-8.3-1.9-17.1-0.4-24.2,4.3L300.1,385c-0.8-2.8-2-5.5-3.5-7.9
                    c-9.5-14.9-29.2-19.4-44.2-9.9l-29.9,18.9l-35.1-18.6c-23.6-12.5-52.1-11.4-74.6,2.9l-47.6,30.2c-3.7,2.4-4.8,7.3-2.5,11.1
                    c2.4,3.7,7.3,4.8,11.1,2.5l47.6-30.2c17.7-11.2,40.1-12.1,58.6-2.3l39.2,20.8c2.5,1.3,5.6,1.2,8-0.3l33.8-21.4
                    c7.5-4.7,17.4-2.5,22.1,4.9s2.5,17.4-4.9,22.1l-27,17.1c-3.7,2.4-4.8,7.3-2.5,11s7.3,4.8,11,2.5l27-17.1c6.2-3.9,10.8-9.9,13-16.8
                    l36.7-24.2c7.6-4.4,17.4-1.8,21.9,5.8c4.2,7.2,2.1,16.4-4.7,21.2l-56,35.5c-38.7,24.6-87.2,28.1-129.1,9.5l-34.4-15.3
                    c-2.4-1.1-5.3-0.9-7.5,0.6l-27,17.1c-3.7,2.4-4.8,7.3-2.5,11s7.3,4.8,11,2.5l23.4-14.8l30.5,13.6c46.8,20.8,100.9,16.8,144.2-10.6
                    l56-35.5C377.1,411.3,381.5,391.5,372.1,376.6z"/>
            </g>
        </g>
        <g>
            <g>
                <path class="st0" d="M454.9,214.4c-0.8-17-14.8-30.3-31.8-30.3h-77.1l-30.2-36.3c-8.6-10.4-19.9-18.3-32.5-22.9
                    c5.6-8.3,9.6-17.6,11.8-27.4c22.9-4.6,41.9-12.3,41.9-25.4c0-12.2-14.8-20.5-46.6-26.3c-0.4,0-0.8,0-1.2,0
                    c-18.9-39.9-66.5-57-106.4-38.1c-16.7,7.9-30.2,21.4-38.1,38.1c-0.4,0-0.8,0-1.2,0C111.9,51.5,97.1,59.8,97.1,72
                    c0,13.1,19,20.8,41.9,25.4c2,9.3,5.7,18.1,10.9,26.1L133.7,135c-43,30.6-78.6,70.6-104.1,116.9c-3,5.4-4.5,11.5-4.5,17.7v5.9
                    C25,295.6,41.2,312,61.4,312c0,0,0,0,0,0h51.7v24c0,4.4,3.6,8,8,8s8-3.6,8-8v-24h32c17.7,0,32-14.3,32-32s-14.3-32-32-32H77.3
                    c-4.4,0-8,3.6-8,8s3.6,8,8,8h83.8c8.8,0,16,7.2,16,16s-7.2,16-16,16H61.4c-5.4,0-10.5-2.2-14.3-6c-3.9-3.9-6-9.1-6-14.6v-5.9
                    c0-3.5,0.9-7,2.6-10c24.3-44.1,58.2-82.3,99.3-111.5l17.2-12.2c0.3,0.1,0.6,0.1,1,0.2h95.7c18.1,0,35.2,8,46.8,21.9l32.6,39.2
                    c1.5,1.8,3.8,2.9,6.1,2.9h80.8c8.8,0,16,7.2,16,16s-7.2,16-16,16h-93.4l-50.9-53.5c-3-3.2-8.1-3.3-11.3-0.3
                    c-1.6,1.5-2.5,3.6-2.5,5.8v152c0,4.4,3.6,8,8,8s8-3.6,8-8V204l39.5,41.5c1.5,1.6,3.6,2.5,5.8,2.5h51c-1.6,1.1-3.1,2.4-4.5,3.7
                    c-7.5,7.5-11.7,17.7-11.7,28.3v10.7c0,4.4,3.6,8,8,8s8-3.6,8-8V280c0-6.4,2.5-12.5,7-17c9.5-9.1,24.4-9.1,33.9,0
                    c4.5,4.5,7,10.6,7,17v88c0,4.4,3.6,8,8,8s8-3.6,8-8v-88c0.2-12.8-5.9-24.8-16.4-32.2C442.3,247,455.8,232,454.9,214.4z M217.1,16
                    c22.9,0.1,44.1,12.4,55.5,32.3c-17.9,5.6-36.7,8.2-55.5,7.7c-18.8,0.5-37.5-2.1-55.5-7.7C173,28.4,194.1,16.1,217.1,16z
                    M113.8,72.1c2.8-2.3,11.8-6.8,32.7-10.6c1.1-0.2,2.1-0.6,3-1.2C163,67.6,188.9,72,217.1,72s54-4.5,67.6-11.7c0.9,0.6,1.9,1,3,1.2
                    c20.9,3.8,29.9,8.2,32.7,10.6c-7.1,6.2-44.2,16-103.3,16S120.9,78.3,113.8,72.1z M266.3,120.7c-3.2-0.4-6.3-0.6-9.5-0.6h-89.5
                    c-4.8-5.9-8.4-12.6-10.8-19.8c20.1,2.5,40.3,3.7,60.6,3.8c20.2-0.1,40.5-1.3,60.6-3.8C275.2,107.7,271.3,114.6,266.3,120.7z"/>
            </g>
        </g>
    </symbol>


    <symbol id="disabled-people" viewBox="0 0 512 512">
        <g>
            <g>
                <path class="st0" d="M141.2,472c38.6,0,70-31.4,70-70s-31.4-70-70-70s-70,31.4-70,70S102.6,472,141.2,472z M141.2,352
                    c27.6,0,50,22.4,50,50c0,27.6-22.4,50-50,50s-50-22.4-50-50C91.2,374.4,113.6,352,141.2,352z"/>
                <path class="st0" d="M318.9,379.4c-5.6-21-26.6-37.4-47.7-37.4h-37.8c-7.7-11.7-17.5-21.9-29-30h56.8c5.5,0,10-4.5,10-10v-30
                    c0-22.1-17.9-40-40-40h-50v-20c0-1.1-0.1-2.3-0.2-3.4c23.7-8.3,40.2-30.7,40.2-56.6c0-33.1-26.9-60-60-60s-60,26.9-60,60
                    c0,12,3.6,23.6,10.2,33.4c-0.8,0.8-1.5,1.7-2.2,2.6c-5-3.8-11.3-6-18-6h-20H36c-5.5,0-10,4.5-10,10c0,5.5,4.5,10,10,10h25.2v124.4
                    c-7.2,7.6-13.4,16.4-18.2,26.1c-2.5,4.9-0.5,10.9,4.4,13.4c4.9,2.5,10.9,0.5,13.4-4.4C76.2,331,107,312,141.2,312h0h0
                    c49.6,0,90,40.4,90,90c0,49.6-40.4,90-90,90c-34.2,0-65-19-80.4-49.5c-2.5-4.9-8.5-6.9-13.4-4.4c-4.9,2.5-6.9,8.5-4.4,13.4
                    c18.8,37.3,56.5,60.5,98.2,60.5c53.8,0,98.7-38.9,108.2-90h0.2l8.7,32.6c5.6,21,26.6,37.4,47.7,37.4h30c3.1,0,6-1.4,7.9-3.9
                    c1.9-2.5,2.5-5.7,1.7-8.7L318.9,379.4z M231.2,252c11,0,20,9,20,20v20h-110c0,0,0,0,0,0c0,0,0,0,0,0c-11,0-20-9-20-20v-60
                    c0-11,9-20,20-20s20,9,20,20v30c0,5.5,4.5,10,10,10H231.2z M161.2,112c22.1,0,40,17.9,40,40c0,17.3-10.9,32.3-26.8,37.8
                    c-7.2-10.7-19.4-17.8-33.2-17.8c-4.6,0-9.1,0.8-13.2,2.3c-4.4-6.5-6.8-14.2-6.8-22.3C121.2,130,139.1,112,161.2,112L161.2,112z
                    M101.2,212v60c0,9.3,3.2,17.8,8.5,24.6c-10.1,3-19.7,7.4-28.5,13.1V202h10C96.7,202,101.2,206.5,101.2,212L101.2,212z M306,472
                    c-11.9,0-25.2-10.6-28.4-22.6l-10.7-40c-1.2-4.4-5.1-7.4-9.7-7.4h-6.1c0-14.1-2.7-27.6-7.5-40h27.5c11.9,0,25.2,10.6,28.4,22.6
                    L323,472H306z"/>
                <path class="st0" d="M141.2,412c5.5,0,10-4.5,10-10c0-5.5-4.5-10-10-10h0c-5.5,0-10,4.5-10,10C131.2,407.5,135.7,412,141.2,412z"
                    />
                <path class="st0" d="M466.3,19.3c-25.8-25.7-67.7-25.7-93.4,0c-5,5-11.5,3.8-15.3,0c-25.8-25.7-67.7-25.7-93.4,0
                    c-18,18-23.8,41.5-16.7,68c15.1,56.5,84.7,113.4,115.2,121.6c0.8,0.2,1.7,0.3,2.6,0.3s1.7-0.1,2.6-0.3
                    c30.5-8.1,100.1-65.1,115.2-121.6C490.1,60.7,484.3,37.2,466.3,19.3L466.3,19.3z M463.7,82c-12.9,48.3-73.4,97.6-98.5,106.6
                    c-25.1-9-85.5-58.3-98.5-106.6c-5.3-19.7-1.5-35.6,11.5-48.6c9-9,20.8-13.4,32.6-13.4c11.8,0,23.6,4.5,32.6,13.4
                    c12.2,12.2,31.3,12.2,43.5,0c18-17.9,47.2-17.9,65.2,0C465.2,46.4,469,62.3,463.7,82z"/>
                <path class="st0" d="M51.2,402c0-5.5-4.5-10-10-10s-10,4.5-10,10v0c0,5.5,4.5,10,10,10S51.2,407.5,51.2,402z"/>
            </g>
        </g>
    </symbol>


    <symbol id="maternity" viewBox="0 0 512 512">
        <g>
            <g>
                <path class="st0" d="M424.1,16.4C414.8,6.1,401,0,387.1,0H268.8c-3.5,0-6.8,1.9-8.6,4.9c-9.1,15.4-14.9,27.4-19.6,37.1
                    c-11.8,24.4-12.8,26.4-36.9,26c-19.8-1.3-38.2,3.2-53,12.8c-13.8,9-24.1,22-29.7,37.5c-5.5,15.2-5.9,32.1-1.3,47.6
                    c4,13.5,11.7,25.6,22.5,35.5c-1.9,3.1-3.3,6.4-4,9.7c-0.3,1.6-0.6,3.4-0.7,5.4c-40.7,27.3-64.2,72.7-60.2,117.4
                    c3.9,43.1,32.1,79,78,99.8c-9,19.6-13.9,49.9-2.7,72.8c1.7,3.4,5.2,5.6,9,5.6h73.6c5.5,0,10-4.5,10-10s-4.5-10-10-10h-66.8
                    c-5.4-17.2-0.2-39,5.8-51.5c6.8,1.6,14.3,2.3,22.1,2.3c34.6,0,75.5-14.5,89.8-35.2c3.1-4.5,2-10.8-2.5-13.9
                    c-4.5-3.1-10.8-2-13.9,2.5c-6,8.7-22.5,17.5-42,22.5c-20.9,5.3-41.3,5.6-54.6,0.6c-45.4-17.3-72.3-48.3-75.8-87.3
                    c-3.4-37.5,16.7-75.8,51.5-99.1c4.2-0.3,22,3.6,22,3.6L345,276.6c50.2,60.9,62.7,131.5,38.1,215.4h-58.2c-5.5,0-10,4.5-10,10
                    s4.5,10,10,10h65.6c4.4,0,8.2-2.8,9.5-7c15.8-50.3,19.3-97.4,10.3-140.1c-6.2-29.5-18.6-57.7-36.9-83.9c7.8-0.6,15.3-3.3,21.9-8
                    c11.4-8.2,18.6-21.4,20.2-37.2L435.1,49C436.3,37.3,432.4,25.7,424.1,16.4L424.1,16.4z M274.6,20h64c-5,24.3-17.7,39-39.5,46.1
                    c-15.4,5-33.8,5.5-51.4,4.8c3.7-5.3,6.9-11.9,10.9-20.2C262.6,42.4,267.5,32.4,274.6,20z M395.7,233.8c-1,10.1-5.3,18.2-12,23
                    c-5.5,4-12.4,5.3-19.4,3.7l-194.4-44.5c-4.4-1-11.8-1.6-12-1.7c1.9-4.5,5.3-7.2,5.8-7.7c7.1-6.1,19.3-11.3,32.8-8.9L343.8,224
                    c2.8,0.5,5.8-0.2,8-2c2.3-1.8,3.6-4.5,3.7-7.4l3.4-79.2l45.8,10.9L395.7,233.8z M415.2,46.9l-8.3,79.3l-55.1-13.1
                    c-2.9-0.7-6-0.1-8.3,1.7c-2.4,1.8-3.8,4.6-4,7.6l-3.4,79.9l-136-24.3c-16.4-2.9-32.2,1.4-43.9,9.2c-18-16.3-24.5-40-16.5-62.2
                    c7-19.5,27.2-39.5,62.9-37.1c0.1,0,0.1,0,0.2,0c0,0,0,0,0.1,0c5.8,0.2,12.4,0.8,19.4,1.3c11.6,0.9,24.5,1.9,37.6,1.9
                    c15.4,0,31.2-1.4,45.5-6.1c29.9-9.7,47.9-31.6,53.6-65.1h28.2c8.3,0,16.5,3.7,22.1,9.8C413.7,34.8,415.8,40.9,415.2,46.9
                    L415.2,46.9z"/>
                <path class="st0" d="M191.5,281.2c-7-5.7-15.7-8.8-24.9-8.6c-10.2,0.2-19.7,4.3-26.7,11.6c-14.6,15.1-14.2,39.3,0.9,53.9
                    l43.7,42.2c1.9,1.9,4.4,2.8,6.9,2.8s5-0.9,6.9-2.8l43.7-42.2c7.3-7.1,11.4-16.6,11.6-26.8c0.2-10.2-3.6-19.8-10.7-27.1
                    c-7.1-7.3-16.6-11.4-26.8-11.6C207.1,272.4,198.4,275.5,191.5,281.2L191.5,281.2z M233.7,311c-0.1,4.9-2,9.4-5.5,12.7l-36.8,35.5
                    l-36.8-35.5c-7.2-7-7.4-18.4-0.4-25.6c3.3-3.5,7.9-5.4,12.7-5.5c0.1,0,0.2,0,0.3,0c4.7,0,9.2,1.8,12.6,5.1l4.6,4.5
                    c3.9,3.7,10,3.7,13.9,0l4.7-4.5c3.5-3.3,8-5.1,12.9-5c4.9,0.1,9.4,2,12.7,5.5C232,301.6,233.8,306.1,233.7,311L233.7,311z"/>
                <path class="st0" d="M280,492c-5.5,0-10,4.5-10,10s4.5,10,10,10h0.1c5.5,0,10-4.5,10-10S285.5,492,280,492z"/>
            </g>
        </g>
    </symbol>


    <symbol id="rehabilitation" viewBox="0 0 512 512">
        <g>
            <g>
                <path class="st0" d="M341.7,446c-1.8-1.8-4.4-2.9-7-2.9s-5.1,1.1-7,2.9c-1.8,1.8-2.9,4.4-2.9,7s1.1,5.1,2.9,7
                    c1.8,1.8,4.4,2.9,7,2.9s5.1-1.1,7-2.9c1.8-1.8,2.9-4.4,2.9-7C344.6,450.3,343.6,447.8,341.7,446z"/>
            </g>
        </g>
        <g>
            <g>
                <path class="st0" d="M482.5,351.6h-82.8V203.1c0-15.6-5.8-30.6-16.4-42.1c-6.3-6.9-14-12.2-22.5-15.7c12.1-15.7,18.8-35,18.8-55
                    c0-49.7-40.5-90.2-90.2-90.2s-90.2,40.5-90.2,90.2c0,32.9,17.4,62.4,45.3,78.3l-68.2,82l-68.6,48.5c-8.7,6.1-14.5,15.3-16.3,25.8
                    c-1.6,9.4,0.1,18.8,4.9,26.9H29.5c-5.4,0-9.8,4.4-9.8,9.8s4.4,9.8,9.8,9.8h29.5v130.8c0,5.4,4.4,9.8,9.8,9.8s9.8-4.4,9.8-9.8
                    V371.3c0.4,0,160.1,0,160.5,0v130.8c0,5.4,4.4,9.8,9.8,9.8h140.7c5.4,0,9.8-4.4,9.8-9.8V371.3h33.6v130.8c0,5.4,4.4,9.8,9.8,9.8
                    s9.8-4.4,9.8-9.8V371.3h29.5c5.4,0,9.8-4.4,9.8-9.8C492.3,356.1,487.9,351.6,482.5,351.6z M239.3,351.6h-68l51.3-36.3
                    c0.3-0.2,0.6-0.5,0.9-0.7l11.6-10.4c0.4-0.3,0.7-0.7,1-1l3.2-3.8L239.3,351.6L239.3,351.6z M259,492.3v-29.5h46.3
                    c5.4,0,9.8-4.4,9.8-9.8s-4.4-9.8-9.8-9.8H259v-71.7h121v121L259,492.3L259,492.3z M379.9,351.6H259v-75.9l32.1-38.6
                    c3.5-4.2,2.9-10.4-1.3-13.9c-4.2-3.5-10.4-2.9-13.9,1.3l-34.3,41.3c0,0,0,0,0,0l-20.1,24.2l-10.7,9.6L142.4,348
                    c-3.3,2.4-7.2,3.6-11,3.7h-0.8c-6.3,0-12.5-3-16.4-8.5c-3.1-4.4-4.3-9.8-3.4-15.1c0.9-5.3,3.8-10,8.2-13.1l67.2-47.5
                    c1.4-0.6,2.7-1.5,3.8-2.8l73-87.8c0.3-0.4,0.6-0.7,0.8-1.1c0.9-1.5,2-3,3.3-4.4c0-0.1,0.1-0.1,0.1-0.2c6.2-7,15-10.9,24.3-10.9
                    c5.4,0,9.8-4.4,9.8-9.8s-4.4-9.8-9.8-9.8c-12.5,0-24.5,4.5-34,12.6c-23.8-11.9-38.8-36-38.8-63c0-38.9,31.6-70.5,70.5-70.5
                    c38.9,0,70.5,31.6,70.5,70.5c0,20.3-8.8,39.7-24.2,53.1c-3,2.6-4.1,6.7-2.9,10.4c1.2,3.7,4.5,6.4,8.5,6.8
                    c22.1,2.1,38.7,20.4,38.7,42.5L379.9,351.6L379.9,351.6z"/>
            </g>
        </g>
    </symbol>


    <symbol id="sugar-blood-level" viewBox="0 0 512 512">
        <g>
            <g>
                <path class="st0" d="M419.6,143.5c-15,0-27.3,12.2-27.3,27.3c0,15,12.2,27.3,27.3,27.3c15,0,27.3-12.2,27.3-27.3
                    C446.9,155.7,434.7,143.5,419.6,143.5z M419.6,183c-6.8,0-12.3-5.5-12.3-12.3c0-6.8,5.5-12.3,12.3-12.3c6.8,0,12.3,5.5,12.3,12.3
                    C431.9,177.5,426.4,183,419.6,183z"/>
                <path class="st0" d="M343.9,143.5c-15,0-27.3,12.2-27.3,27.3c0,15,12.2,27.3,27.3,27.3c15,0,27.3-12.2,27.3-27.3
                    C371.1,155.7,358.9,143.5,343.9,143.5z M343.9,183c-6.8,0-12.3-5.5-12.3-12.3c0-6.8,5.5-12.3,12.3-12.3c6.8,0,12.3,5.5,12.3,12.3
                    C356.1,177.5,350.6,183,343.9,183z"/>
                <path class="st0" d="M434.3,39.4H329.2c-6.9,0-12.6,5.7-12.6,12.6v50.3c0,6.9,5.6,12.6,12.6,12.6h36.3c4.1,0,7.5-3.4,7.5-7.5
                    s-3.4-7.5-7.5-7.5h-33.9V54.4h100.3v45.5h-30c-4.1,0-7.5,3.4-7.5,7.5s3.4,7.5,7.5,7.5h32.4c6.9,0,12.6-5.7,12.6-12.6V52
                    C446.9,45.1,441.3,39.4,434.3,39.4z"/>
                <path class="st0" d="M441.2,0H322.3c-24.9,0-45.2,20.3-45.2,45.2v143.2c0,42.2,34.2,76.5,76.4,76.7v39.6H249.4
                    c5.6-16.8,4-31.9,1.2-42.3c-4.2-15.8-13.3-29.8-24.9-38.4c-7.4-5.4-16.9-6.6-24.7-3.1c-7.9,3.6-13.1,11.4-14.1,21.6
                    c-2.4,24.8-9.9,41.2-22.7,50.2c-10,7-30.3,11.8-39.3,12h-20.4v-3.2c0-5.9-4.8-10.7-10.7-10.7H36.4c-5.9,0-10.7,4.8-10.7,10.7v72.7
                    c0,4.1,3.4,7.5,7.5,7.5s7.5-3.4,7.5-7.5v-68.4h48.7v175.5H40.6v-72.5c0-4.1-3.4-7.5-7.5-7.5s-7.5,3.4-7.5,7.5v76.8
                    c0,5.9,4.8,10.7,10.7,10.7h57.3c5.9,0,10.7-4.8,10.7-10.7v-3.2h15.9c12.7,0,19.3,5.1,27.6,11.5c9.2,7.1,20.6,15.8,41.8,18.1
                    c0.3,0,0.5,0,0.8,0h70h63.5c12.6,0,20.3-5.4,24.5-9.9c5.4-5.8,8.4-13.4,8.4-21.7c0-6.9-2.2-13.8-6.5-19.4
                    c12.1-5.3,18.3-17,18.3-28.7c0-6.9-2.2-13.8-6.5-19.4c4.4-1.9,7.7-4.6,9.9-7c5.4-5.8,8.4-13.4,8.4-21.7c0-5.7-1.5-11.5-4.5-16.5
                    H407c21.6,0,32.9-15.9,32.9-31.5c0-14.9-10.3-30-29.9-31.4v-39.7c42.1-0.2,76.4-34.5,76.4-76.7V45.2C486.4,20.3,466.1,0,441.2,0
                    L441.2,0z M395,306.5c0,7.3-6,13.3-13.3,13.3c-7.3,0-13.3-5.9-13.3-13.3v-78.4H395V306.5z M337.7,491.9c-3.2,3.4-7.9,5.1-13.6,5.1
                    h-63.5c-12.4,0-17.9-8.3-17.9-16.5c0-4.4,1.5-8.4,4.3-11.4c3.2-3.4,7.9-5.1,13.6-5.1h63.5c12.4,0,17.9,8.3,17.9,16.5
                    C342,484.9,340.4,488.9,337.7,491.9z M335.9,449h-75.3c-12.4,0-17.9-8.3-17.9-16.5c0-4.4,1.5-8.4,4.3-11.4
                    c3.2-3.4,7.9-5.1,13.6-5.1h75.3c12.4,0,17.9,8.3,17.9,16.5C353.8,440.6,348.3,449,335.9,449z M365.6,384.4
                    c0,8.2-5.5,16.5-17.9,16.5h-87.1c-12.4,0-17.9-8.3-17.9-16.5c0-4.4,1.5-8.4,4.3-11.4c3.2-3.4,7.9-5.1,13.6-5.1h87.1
                    C360.1,367.8,365.6,376.1,365.6,384.4z M424.9,336.3c0,8.2-5.5,16.5-17.9,16.5H260.6c-21.6,0-32.9,15.9-32.9,31.5
                    c0,8.9,3.7,17.9,10.9,24c-7.2,6.1-10.9,15.1-10.9,24c0,9,3.7,18,10.9,24.1c-0.9,0.8-1.8,1.6-2.5,2.4c-5.4,5.8-8.4,13.4-8.4,21.7
                    c0,5.7,1.5,11.5,4.5,16.5H191c-16.8-1.9-25.1-8.3-33.9-15.1c-9.3-7.2-19-14.6-36.8-14.6h-15.9V319.8h21.1
                    c9.5-0.1,34.5-5.9,47.2-14.7c16.7-11.6,26.2-31.6,29.1-61.1c0.3-3.3,1.5-7.7,5.3-9.4c2.9-1.3,6.7-0.7,9.8,1.5
                    c18.2,13.3,28.9,44.9,14.6,72.7c-1.2,2.3-1.1,5.1,0.3,7.3c1.4,2.2,3.8,3.6,6.4,3.6h118.7c4.8,8.9,14.2,15,25,15
                    c10.8,0,20.2-6.1,25-15c0.1,0,0.2,0,0.3,0C419.4,319.8,424.9,328.1,424.9,336.3L424.9,336.3z M471.4,188.4
                    c0,33.9-27.5,61.5-61.4,61.7v-24.8c0-6.7-5.5-12.2-12.2-12.2h-32.2c-6.7,0-12.2,5.5-12.2,12.2v24.8c-33.9-0.2-61.4-27.8-61.4-61.7
                    V45.2c0-16.7,13.6-30.2,30.2-30.2h118.9c16.7,0,30.2,13.6,30.2,30.2L471.4,188.4L471.4,188.4z"/>
            </g>
        </g>
    </symbol>

    <symbol id="charity" viewBox="0 0 512 512">
        <g>
            <g>
                <g>
                    <g>
                        <path class="st0" d="M32.2,480c-4.4,0-8-3.6-8-8s3.5-8,8-8h0.1c4.4,0,8,3.6,8,8S36.6,480,32.2,480z"/>
                    </g>
                    <g>
                        <path class="st0" d="M488,395.7c-2.8,0-5.5-1.4-6.9-4c-2.2-3.8-0.9-8.7,2.9-10.9c7.4-4.3,12-12.2,12-20.8c0-13.2-10.8-24-24-24
                            c-4.4,0-8-3.6-8-8s3.6-8,8-8c22.1,0,40,17.9,40,40c0,14.2-7.7,27.5-20,34.6C490.8,395.4,489.4,395.7,488,395.7L488,395.7z"/>
                    </g>
                    <g>
                        <path class="st0" d="M272,512c-2.8,0-5.6-1.5-7.1-4.2c-2.1-3.9-0.6-8.7,3.3-10.8l216-116.3c3.9-2.1,8.7-0.6,10.8,3.3
                            s0.6,8.7-3.3,10.8L275.8,511C274.6,511.7,273.3,512,272,512z"/>
                    </g>
                    <g>
                        <path class="st0" d="M272,512c-0.4,0-0.7,0-1.1-0.1l-176-24c-4.4-0.6-7.4-4.6-6.8-9c0.6-4.4,4.6-7.4,9-6.8l176,24
                            c4.4,0.6,7.4,4.6,6.8,9C279.4,509.1,275.9,512,272,512L272,512z"/>
                    </g>
                    <g>
                        <path class="st0" d="M96,496H72.1c-4.4,0-8-3.6-8-8s3.6-8,8-8H88V296H72.1c-4.4,0-8-3.6-8-8s3.6-8,8-8H96c4.4,0,8,3.6,8,8v200
                            C104,492.4,100.4,496,96,496z"/>
                    </g>
                    <g>
                        <path class="st0" d="M312,360c-3.9,0-7.3-2.8-7.9-6.8c-0.7-4.4,2.3-8.4,6.7-9.1l154.5-23.5c4.4-0.7,8.4,2.3,9.1,6.7
                            s-2.3,8.4-6.7,9.1l-154.5,23.5C312.8,360,312.4,360,312,360L312,360z"/>
                    </g>
                    <g>
                        <path class="st0" d="M280,392c-4.4,0-8-3.6-8-8s3.6-8,8-8c13.2,0,24-10.8,24-24c0-11.7-8.4-21.7-19.9-23.6
                            c-4.4-0.8-7.3-4.9-6.5-9.2s4.9-7.2,9.2-6.5c19.2,3.3,33.1,19.9,33.1,39.4C320,374.1,302.1,392,280,392z"/>
                    </g>
                    <g>
                        <path class="st0" d="M285.5,328.5c-0.5,0-1,0-1.5-0.2l-125.5-24.5c-4.3-0.8-7.2-5-6.3-9.4s5-7.2,9.4-6.3L287,312.6
                            c4.3,0.8,7.2,5,6.3,9.4C292.6,325.8,289.3,328.5,285.5,328.5z"/>
                    </g>
                    <g>
                        <path class="st0" d="M160,304H96c-4.4,0-8-3.6-8-8s3.6-8,8-8h64c4.4,0,8,3.6,8,8S164.4,304,160,304z"/>
                    </g>
                    <g>
                        <path class="st0" d="M276.6,391.8c-0.2,0-0.4,0-0.6,0L175.4,384c-4.4-0.3-7.7-4.2-7.4-8.6c0.3-4.4,4.2-7.7,8.6-7.4l100.6,7.8
                            c4.4,0.3,7.7,4.2,7.4,8.6C284.3,388.6,280.8,391.8,276.6,391.8L276.6,391.8z"/>
                    </g>
                    <g>
                        <path class="st0" d="M466.5,336.5c-3.8,0-7.2-2.8-7.9-6.7c-0.7-4.4,2.2-8.5,6.6-9.2c2.2-0.4,4.5-0.6,6.8-0.6c4.4,0,8,3.6,8,8
                            s-3.6,8-8,8c-1.4,0-2.8,0.1-4.2,0.3C467.4,336.4,467,336.5,466.5,336.5L466.5,336.5z"/>
                    </g>
                    <g>
                        <path class="st0" d="M280,392c-1.4,0-2.9-0.1-4.2-0.2c-4.4-0.5-7.5-4.5-7-8.8c0.5-4.4,4.4-7.6,8.8-7c0.8,0.1,1.6,0.1,2.5,0.1
                            c4.4,0,8,3.6,8,8S284.4,392,280,392z"/>
                    </g>
                </g>
                <g>
                    <path class="st0" d="M72,512H8c-4.4,0-8-3.6-8-8s3.6-8,8-8h56V280H8c-4.4,0-8-3.6-8-8s3.6-8,8-8h64c4.4,0,8,3.6,8,8v232
                        C80,508.4,76.4,512,72,512z"/>
                </g>
            </g>
            <g>
                <path class="st0" d="M176.2,307.2c-0.3,0-0.5,0-0.8,0c-4.4-0.4-7.6-4.4-7.2-8.8c2.9-28.7,26.8-50.4,55.7-50.4c4.4,0,8,3.6,8,8
                    c0,4.4-3.6,8-8,8c-20.6,0-37.8,15.5-39.8,36C183.8,304.1,180.3,307.2,176.2,307.2L176.2,307.2z"/>
            </g>
            <g>
                <path class="st0" d="M256,264h-32c-4.4,0-8-3.6-8-8s3.6-8,8-8h32c4.4,0,8,3.6,8,8C264,260.4,260.4,264,256,264z"/>
            </g>
            <g>
                <path class="st0" d="M416,312c-4.4,0-8-3.6-8-8c0-22-17.9-40-40-40c-4.4,0-8-3.6-8-8s3.6-8,8-8c30.9,0,56,25.1,56,56
                    C424,308.4,420.4,312,416,312z"/>
            </g>
            <g>
                <path class="st0" d="M368,264h-32c-4.4,0-8-3.6-8-8s3.6-8,8-8h32c4.4,0,8,3.6,8,8C376,260.4,372.4,264,368,264z"/>
            </g>
            <g>
                <path class="st0" d="M416,342.9c-4.4,0-8-3.6-8-8v-28.7c0-4.4,3.6-8,8-8s8,3.6,8,8v28.7C424,339.4,420.4,342.9,416,342.9z"/>
            </g>
            <g>
                <path class="st0" d="M256,264c-4.4,0-8-3.6-8-8v-25.6c0-4.4,3.6-8,8-8c4.4,0,8,3.6,8,8V256C264,260.4,260.4,264,256,264z"/>
            </g>
            <g>
                <path class="st0" d="M336,264c-4.4,0-8-3.6-8-8v-25.6c0-4.4,3.6-8,8-8s8,3.6,8,8V256C344,260.4,340.4,264,336,264z"/>
            </g>
            <g>
                <path class="st0" d="M296,248c-52.9,0-96-43.1-96-96c0-4.4,3.6-8,8-8s8,3.6,8,8c0,44.1,35.9,80,80,80s80-35.9,80-80
                    c0-4.4,3.6-8,8-8s8,3.6,8,8C392,204.9,348.9,248,296,248z"/>
            </g>
            <g>
                <path class="st0" d="M384,120c-4.4,0-8-3.6-8-8c0-44.1-35.9-80-80-80s-80,35.9-80,80c0,4.4-3.6,8-8,8s-8-3.6-8-8
                    c0-52.9,43.1-96,96-96s96,43.1,96,96C392,116.5,388.4,120,384,120z"/>
            </g>
            <g>
                <path class="st0" d="M208,160c-4.4,0-8-3.6-8-8v-40c0-4.4,3.6-8,8-8s8,3.6,8,8v40C216,156.4,212.4,160,208,160z"/>
            </g>
            <g>
                <path class="st0" d="M384,160c-4.4,0-8-3.6-8-8v-40c0-4.4,3.6-8,8-8s8,3.6,8,8v40C392,156.4,388.4,160,384,160z"/>
            </g>
            <g>
                <path class="st0" d="M272,280c-2,0-4.1-0.8-5.7-2.3l-16-16c-3.1-3.1-3.1-8.2,0-11.3s8.2-3.1,11.3,0l16,16c3.1,3.1,3.1,8.2,0,11.3
                    C276.1,279.2,274,280,272,280z"/>
            </g>
            <g>
                <path class="st0" d="M272,280c-3.4,0-6.5-2.1-7.6-5.5c-1.4-4.2,0.9-8.7,5.1-10.1l24-8c4.2-1.4,8.7,0.9,10.1,5.1s-0.9,8.7-5.1,10.1
                    l-24,8C273.7,279.9,272.8,280,272,280L272,280z"/>
            </g>
            <g>
                <path class="st0" d="M320,280c-2,0-4.1-0.8-5.7-2.3c-3.1-3.1-3.1-8.2,0-11.3l16-16c3.1-3.1,8.2-3.1,11.3,0s3.1,8.2,0,11.3l-16,16
                    C324.1,279.2,322,280,320,280z"/>
            </g>
            <g>
                <path class="st0" d="M320,280c-0.8,0-1.7-0.1-2.5-0.4l-24-8c-4.2-1.4-6.5-5.9-5.1-10.1c1.4-4.2,5.9-6.5,10.1-5.1l24,8
                    c4.2,1.4,6.5,5.9,5.1,10.1C326.5,277.9,323.3,280,320,280L320,280z"/>
            </g>
            <g>
                <path class="st0" d="M208,120c-4.4,0-8-3.6-8-8c0-26.5,21.5-48,48-48c4.4,0,8,3.6,8,8s-3.6,8-8,8c-17.6,0-32,14.4-32,32
                    C216,116.5,212.4,120,208,120z"/>
            </g>
            <g>
                <path class="st0" d="M384,120c-4.4,0-8-3.6-8-8c0-17.6-14.4-32-32-32c-4.4,0-8-3.6-8-8s3.6-8,8-8c26.5,0,48,21.5,48,48
                    C392,116.5,388.4,120,384,120z"/>
            </g>
            <g>
                <path class="st0" d="M256,80c-4.4,0-8-3.6-8-8l0-38.4c0-4.4,3.6-8,8-8c4.4,0,8,3.6,8,8l0,38.4C264,76.4,260.4,80,256,80z"/>
            </g>
            <g>
                <path class="st0" d="M336,80c-4.4,0-8-3.6-8-8V33.6c0-4.4,3.6-8,8-8s8,3.6,8,8V72C344,76.5,340.4,80,336,80z"/>
            </g>
            <g>
                <path class="st0" d="M312,56h-32c-4.4,0-8-3.6-8-8s3.6-8,8-8h32c4.4,0,8,3.6,8,8S316.4,56,312,56z"/>
            </g>
            <g>
                <path class="st0" d="M312,80h-32c-4.4,0-8-3.6-8-8s3.6-8,8-8h32c4.4,0,8,3.6,8,8S316.4,80,312,80z"/>
            </g>
            <g>
                <path class="st0" d="M344,80h-8c-4.4,0-8-3.6-8-8s3.6-8,8-8h8c4.4,0,8,3.6,8,8S348.4,80,344,80z"/>
            </g>
            <g>
                <path class="st0" d="M256,80h-8c-4.4,0-8-3.6-8-8s3.6-8,8-8h8c4.4,0,8,3.6,8,8S260.4,80,256,80z"/>
            </g>
            <g>
                <path class="st0" d="M312,136h-32c-4.4,0-8-3.6-8-8s3.6-8,8-8h32c4.4,0,8,3.6,8,8C320,132.4,316.4,136,312,136z"/>
            </g>
            <g>
                <path class="st0" d="M280,152h-40c-4.4,0-8-3.6-8-8v-32c0-4.4,3.6-8,8-8h40c4.4,0,8,3.6,8,8v32C288,148.4,284.4,152,280,152z
                    M248,136h24v-16h-24V136z"/>
            </g>
            <g>
                <path class="st0" d="M352,152h-40c-4.4,0-8-3.6-8-8v-32c0-4.4,3.6-8,8-8h40c4.4,0,8,3.6,8,8v32C360,148.4,356.4,152,352,152z
                    M320,136h24v-16h-24V136z"/>
            </g>
            <g>
                <path class="st0" d="M440,89.2c-2,0-4.1-0.8-5.7-2.3l-33.2-33.1c-12.2-12.2-12.2-32.2,0-44.4C411.4-0.9,428.1-2.7,440,4.7
                    c11.9-7.4,28.7-5.7,38.8,4.5c12.1,12.2,12.2,31.9,0.3,44.1c-0.1,0.1-0.2,0.2-0.3,0.4l-33.2,33.1C444.1,88.4,442,89.2,440,89.2
                    L440,89.2z M423.4,16c-4.1,0-8,1.6-10.9,4.5c-6,6-6,15.8,0,21.8L440,69.8l27.1-27c0.2-0.2,0.4-0.5,0.7-0.7
                    c5.8-6,5.7-15.7-0.2-21.6c-5.8-5.8-16-5.8-21.8,0c-3.1,3.1-8.2,3.1-11.3,0C431.4,17.6,427.5,16,423.4,16L423.4,16z"/>
            </g>
            <g>
                <path class="st0" d="M152,89.2c-2,0-4.1-0.8-5.7-2.3l-33.2-33.1c-12.2-12.2-12.2-32.2,0-44.4C123.4-0.9,140.1-2.7,152,4.7
                    c11.9-7.4,28.7-5.7,38.8,4.5c12.1,12.2,12.2,31.9,0.3,44.1c-0.1,0.1-0.2,0.2-0.3,0.4l-33.2,33.1C156.1,88.4,154.1,89.2,152,89.2z
                    M135.4,16c-4.1,0-8,1.6-10.9,4.5c-6,6-6,15.8,0,21.8L152,69.8l27.1-27c0.2-0.2,0.4-0.5,0.7-0.7c5.8-6,5.7-15.7-0.2-21.6
                    c-5.8-5.8-16-5.8-21.8,0c-1.5,1.5-3.5,2.4-5.7,2.4h0c-2.1,0-4.2-0.8-5.6-2.3C143.4,17.6,139.5,16,135.4,16L135.4,16z"/>
            </g>
        </g>
    </symbol>


    <symbol id="grocery" viewBox="0 0 512 512">
        <g id="Outline">
            <g>
                <g>
                    <path class="st0" d="M472,416c4.4,0,8-3.6,8-8V136c0-4.4-3.6-8-8-8c-1.6,0-3.1,0.5-4.4,1.3l-4.1,2.8c-1.7-12.9-7.6-25-16.8-34.3
                        c1.9-0.6,3.9-1,5.9-1.3l4.6-0.6c4.4-0.6,7.4-4.6,6.8-9s-4.6-7.4-9-6.8l0,0l-4.6,0.6c-6.6,0.9-13,3-18.8,6
                        c-14.2-7.4-30.7-8.8-45.9-3.7c4.1-5.5,6.4-12.1,6.4-19c0-17.7-14.3-32-32-32c-2.5,0-5,0.3-7.4,0.9c-12.7-18-37.5-22.3-55.5-9.6
                        c-3.7,2.6-7,5.9-9.6,9.6c-2.4-0.6-4.9-0.9-7.4-0.9c-17.7,0-32,14.3-32,32c0,2.5,0.3,5,0.9,7.4c-17.9,12.6-22.3,37.3-9.7,55.3
                        c0.3,0.4,0.6,0.9,1,1.3c-1.2,1.5-2.2,3.2-3.1,4.9l-38.6-67l0,0l-8-13.9c-19.9-34.4-63.9-46.2-98.3-26.4c0,0,0,0-0.1,0
                        C72.9,36.7,66.3,61.2,77.4,80.3l9.1,15.8c2.2,3.8,7.1,5.1,10.9,2.9c3.8-2.2,5.1-7.1,2.9-10.9l-9.2-15.8
                        c-6.6-11.5-2.7-26.2,8.8-32.8c0,0,0,0,0,0c26.8-15.5,61-6.3,76.5,20.5c0,0,0,0,0,0l4,6.9l-27.7,16c-3.8,2.2-5.1,7.1-2.9,10.9
                        c2.2,3.8,7.1,5.1,10.9,2.9l27.7-16l12,20.8l-27.7,16c-3.8,2.2-5.1,7.1-2.9,10.9c1.1,1.9,3,3.3,5.2,3.8L139.6,156L115,113.5
                        c-2.2-3.8-7.1-5.1-10.9-2.9s-5.1,7.1-2.9,10.9l0,0l12.8,22.2l-21.5-14.4c-3.7-2.4-8.6-1.4-11.1,2.2c-0.9,1.3-1.3,2.9-1.3,4.4v40
                        c0,4.4,3.6,8,8,8s8-3.6,8-8v-25l35.6,23.7c2.7,1.8,6.2,1.8,8.9,0l43.6-29.1l43.6,29c2.7,1.8,6.2,1.8,8.9,0l43.6-29l43.6,29
                        c2.7,1.8,6.2,1.8,8.9,0l35.6-23.7V480H264c-4.4,0-8,3.6-8,8s3.6,8,8,8h208c4.4,0,8-3.6,8-8v-48c0-4.4-3.6-8-8-8s-8,3.6-8,8v28.7
                        l-32-32V392c0-4.4-3.6-8-8-8s-8,3.6-8,8v44.7l-32,32V150.9l32,21.3V272c0,4.4,3.6,8,8,8s8-3.6,8-8v-99.7l32-21.3v257
                        C464,412.4,467.6,416,472,416z M416.7,97.9c-2.9,3-5.4,6.4-7.6,10c-2.3,3.7-1.2,8.7,2.5,11c3.7,2.3,8.7,1.2,11-2.5
                        c0.1-0.1,0.1-0.2,0.1-0.2c2.3-3.9,5.3-7.4,8.8-10.3C442,114.1,448,126.7,448,140c0,0.9-0.1,1.7-0.2,2.5L424,158.4l-43.6-29
                        c-1.3-0.9-2.9-1.4-4.4-1.4l0,0c0-5.6-1.5-11.2-4.4-16c0.7-1.2,1.3-2.4,1.8-3.6C384.9,97.3,401.5,93.3,416.7,97.9L416.7,97.9z
                        M188.4,129.3c-0.7-0.5-1.5-0.8-2.3-1l22.3-12.9l24.4,42.3l-0.9,0.6L188.4,129.3z M328,158.4l-32.5-21.7
                        c9.2-17,24.1-30.3,42.1-37.5c4.1-1.6,6.1-6.3,4.5-10.4c-1.6-4.1-6.3-6.1-10.4-4.5c-9.2,3.7-17.8,8.8-25.4,15
                        c0.7-9.8-0.1-19.7-2.5-29.3c-1-4.3-5.4-6.9-9.7-5.9c-4.3,1-6.9,5.4-5.9,9.7c0,0,0,0.1,0,0.1c4.6,18.3,2.3,37.6-6.4,54.3
                        c-2.1-0.5-4.4-0.1-6.2,1.1l-27.1,18c1-5.2,3.8-9.9,7.8-13.4c3.3-2.9,3.6-8,0.7-11.3c-0.2-0.3-0.5-0.5-0.7-0.7
                        c-5.3-4.5-8.3-11.1-8.3-18c0-9.4,5.5-17.9,14.1-21.8c4-1.8,5.8-6.6,4-10.6c-0.1-0.1-0.1-0.2-0.2-0.3c-1.2-2.2-1.8-4.7-1.9-7.3
                        c0.1-8.8,7.3-15.9,16.1-15.9c2.5,0,4.9,0.6,7.2,1.7c3.9,2,8.8,0.5,10.8-3.4c0.1-0.1,0.1-0.2,0.2-0.3c5.4-12,19.6-17.4,31.6-12
                        c5.3,2.4,9.6,6.7,12,12c0.9,2,2.6,3.5,4.7,4.2c2.1,0.7,4.3,0.5,6.3-0.5c7.8-4.1,17.4-1.1,21.5,6.7c4.1,7.8,1.1,17.4-6.7,21.5
                        c-1.1,0.6-2.2,1-3.3,1.3c-4.3,1.2-6.8,5.5-5.6,9.8c0.1,0.3,0.2,0.6,0.3,0.9c0.8,1.9,1.2,3.9,1.2,6c0,3.9-1.5,7.7-4.2,10.6
                        c-2.7,3-2.7,7.7,0,10.7c5.9,6.5,5.5,16.5-1,22.5c-2.9,2.7-6.7,4.2-10.6,4.2c-0.2,0-1.1-0.1-1.3-0.1c-4.4-0.3-8.1,3-8.4,7.4
                        c-0.1,0.9,0,1.8,0.3,2.6L328,158.4z M424,451.3l28.7,28.7h-57.4L424,451.3z"/>
                    <path class="st0" d="M424,312c-4.4,0-8,3.6-8,8v32c0,4.4,3.6,8,8,8s8-3.6,8-8v-32C432,315.6,428.4,312,424,312z"/>
                    <path class="st0" d="M256.4,411.7c-4.4-0.3-8.2,3-8.6,7.4c0,0,0,0,0,0C246.1,443.7,229,480,216,480c-6.9,0-13.7-2.3-19.2-6.6
                        c-2.9-2.2-6.8-2.2-9.6,0c-5.5,4.2-12.2,6.5-19.2,6.6c-14.4,0-32-42.8-32-64c0-17.7,14.3-32,32-32c6.9,0,13.7,2.3,19.2,6.6
                        c2.9,2.2,6.8,2.2,9.6,0c13.2-9.9,31.8-8.1,42.8,4.1c3.2,3.1,8.2,3,11.3-0.1c2.8-2.9,3.1-7.4,0.6-10.6c-9.1-10.1-22-15.9-35.6-16
                        c-5.8,0-11.5,1.1-16.8,3.2c-0.6-3.8-1.5-7.6-2.8-11.2H216c22.1,0,40-17.9,40-40c0-4.4-3.6-8-8-8h-24c-17.9,0-33.6,12-38.4,29.3
                        c-3.8-4.6-8.2-8.7-13.2-12c-3.7-2.5-8.6-1.5-11.1,2.2s-1.5,8.6,2.2,11.1c9.7,6.5,16.6,16.4,19.2,27.8c-4.7-1.6-9.7-2.4-14.7-2.5
                        c-2.7,0-5.4,0.3-8,0.7v-10.1c0-16.6-6.6-32.6-18.3-44.3c-8.8-8.7-13.7-20.6-13.7-33V248c4.4,0,8-3.6,8-8v-32c0-4.4-3.6-8-8-8H56
                        c-4.4,0-8,3.6-8,8v32c0,4.4,3.6,8,8,8v33.4c0,12.4-4.9,24.3-13.7,33C30.6,326.1,24,342,24,358.6V488c0,4.4,3.6,8,8,8h88
                        c4.4,0,8-3.6,8-8s-3.6-8-8-8H40v-40h83.8c6.8,25.6,22.6,56,44.2,56c8.4,0,16.7-2.3,24-6.6c7.3,4.3,15.6,6.6,24,6.6
                        c27.4,0,45.9-50,47.8-75.8C264.1,415.8,260.8,412,256.4,411.7C256.4,411.7,256.4,411.7,256.4,411.7z M224,328h14.6
                        c-3.4,9.6-12.5,16-22.6,16h-14.6C204.8,334.4,213.8,328,224,328z M64,216h56v16H64V216z M40,424v-40h72c4.4,0,8-3.6,8-8
                        s-3.6-8-8-8H40v-9.4c0-12.4,4.9-24.3,13.7-33C65.4,313.9,72,298,72,281.4V248h40v33.4c0,16.6,6.6,32.6,18.3,44.3
                        c8.8,8.7,13.7,20.6,13.7,33v15.9c-14.8,8.6-24,24.4-24,41.5c0,2.7,0.2,5.3,0.6,8H40z"/>
                    <path class="st0" d="M328,216h-72c-4.4,0-8,3.6-8,8s3.6,8,8,8h72c4.4,0,8-3.6,8-8S332.4,216,328,216z"/>
                    <path class="st0" d="M328,256h-48c-4.4,0-8,3.6-8,8s3.6,8,8,8h48c4.4,0,8-3.6,8-8S332.4,256,328,256z"/>
                </g>
            </g>
        </g>

    </symbol>


    <symbol id="weight-scale" viewBox="0 0 512 512">
        <g>
            <g>
                <path class="st0" d="M452.1,41.5H128c-4.1,0-7.5,3.4-7.5,7.5s3.4,7.5,7.5,7.5h324.1c24.8,0,44.9,20.2,44.9,44.9v224.9
                    c0,71.2-57.9,129.2-129.2,129.2H144.2C72.9,455.5,15,397.6,15,326.3V101.4c0-24.8,20.2-44.9,44.9-44.9h36c4.1,0,7.5-3.4,7.5-7.5
                    s-3.4-7.5-7.5-7.5h-36C26.9,41.5,0,68.4,0,101.4v224.9c0,79.5,64.7,144.2,144.2,144.2h223.7c79.5,0,144.2-64.7,144.2-144.2V101.4
                    C512,68.4,485.1,41.5,452.1,41.5L452.1,41.5z"/>
                <path class="st0" d="M482,101.4c0-16.5-13.4-29.9-29.9-29.9H59.9C43.4,71.5,30,84.9,30,101.4v224.9c0,24.3,7.5,47.4,21.7,67
                    c1.5,2,3.8,3.1,6.1,3.1c1.5,0,3.1-0.5,4.4-1.4c3.4-2.4,4.1-7.1,1.7-10.5c-12.3-17-18.9-37.1-18.9-58.2V101.4
                    c0-8.2,6.7-14.9,14.9-14.9h392.2c8.2,0,14.9,6.7,14.9,14.9v17.1c0,4.1,3.4,7.5,7.5,7.5s7.5-3.4,7.5-7.5V101.4z"/>
                <path class="st0" d="M84.6,405.6c-3.3-2.5-8-1.8-10.5,1.5c-2.5,3.3-1.8,8,1.5,10.5c19.9,15,43.6,22.9,68.6,22.9h223.7
                    c62.9,0,114.2-51.2,114.2-114.2V150.5c0-4.1-3.4-7.5-7.5-7.5s-7.5,3.4-7.5,7.5v175.8c0,54.7-44.5,99.2-99.2,99.2H144.2
                    C122.5,425.5,101.9,418.6,84.6,405.6L84.6,405.6z"/>
                <path class="st0" d="M353.5,174.8V143c0-22.9-18.6-41.5-41.5-41.5H200c-22.9,0-41.5,18.6-41.5,41.5v31.8c0,8.6,7,15.7,15.7,15.7
                    h163.7C346.5,190.5,353.5,183.5,353.5,174.8L353.5,174.8z M173.5,174.8V143c0-14.6,11.9-26.5,26.5-26.5h112
                    c14.6,0,26.5,11.9,26.5,26.5v31.8c0,0.4-0.3,0.7-0.7,0.7h-58.3V169c0-13-10.5-23.5-23.5-23.5c-3.7,0-7.1,0.8-10.3,2.4l-23.2-23.2
                    c-2.9-2.9-7.7-2.9-10.6,0s-2.9,7.7,0,10.6l23.1,23.1c-1.6,3.2-2.6,6.8-2.6,10.6v6.5h-58.3C173.8,175.5,173.5,175.2,173.5,174.8
                    L173.5,174.8z M247.5,175.5V169c0-4.7,3.8-8.5,8.5-8.5c4.7,0,8.5,3.8,8.5,8.5v6.5H247.5z"/>
                <path class="st0" d="M256,226.5c-12.4,0-22.5,10.1-22.5,22.5v104c0,12.4,10.1,22.5,22.5,22.5c12.4,0,22.5-10.1,22.5-22.5V249
                    C278.5,236.6,268.4,226.5,256,226.5z M263.5,353c0,4.1-3.4,7.5-7.5,7.5s-7.5-3.4-7.5-7.5V249c0-4.1,3.4-7.5,7.5-7.5
                    c4.1,0,7.5,3.4,7.5,7.5V353z"/>
            </g>
        </g>
    </symbol>


    <symbol id="restaurant" viewBox="0 0 480 480">
        <g>
            <g>
                <path class="st0" d="M16,48H0v384h48V315.3l16-16V104C64,78.1,43,48,16,48z M48,292.7l-16,16V416H16V64c17.2,0,32,22,32,40V292.7z
                    "/>
            </g>
        </g>
        <g>
            <g>
                <path class="st0" d="M472,48c-4.4,0-8,3.6-8,8v72h-16V56c0-4.4-3.6-8-8-8s-8,3.6-8,8v72h-16V56c0-4.4-3.6-8-8-8s-8,3.6-8,8v136h16
                    v240h48V192h16V56C480,51.6,476.4,48,472,48z M464,176h-16v240h-16V176h-16v-32h48V176z"/>
            </g>
        </g>
        <g>
            <g>
                <path class="st0" d="M240,80c-88.4,0-160,71.6-160,160s71.6,160,160,160s160-71.6,160-160C399.9,151.7,328.3,80.1,240,80z
                    M240,384c-79.5,0-144-64.5-144-144S160.5,96,240,96s144,64.5,144,144C383.9,319.5,319.5,383.9,240,384z"/>
            </g>
        </g>
        <g>
            <g>
                <path class="st0" d="M240,143.7c-53.2,0-96.3,43.1-96.3,96.3s43.1,96.3,96.3,96.3s96.3-43.1,96.3-96.3
                    C336.2,186.9,293.1,143.8,240,143.7z M240,320.3c-44.3,0-80.3-35.9-80.3-80.3s35.9-80.3,80.3-80.3s80.3,35.9,80.3,80.3
                    C320.2,284.3,284.3,320.2,240,320.3z"/>
            </g>
        </g>
    </symbol>


    <symbol id="ingredients" viewBox="0 0 480 480">
        <g>
            <g>
                <path class="st0" d="M403.7,280c-9.6,0-18.8,3.8-25.6,10.6L284.7,384H224v-8c0-22.1-17.9-40-40-40h-8c-8.8,0-16,7.2-16,16v8
                    c0,8.7,2.9,17.1,8.2,24H104v96h272v-84.7l53.4-53.4c6.8-6.8,10.7-16,10.6-25.7C440,296.2,423.7,280,403.7,280z M176,352h8
                    c13.3,0,24,10.7,24,24v8h-8c-13.3,0-24-10.7-24-24V352z M360,464H120v-64h240V464z M418.5,330.2c-0.1,0.2-0.3,0.3-0.5,0.5
                    L364.7,384h-57.4l82.1-82.1c7.8-8,20.6-8.3,28.7-0.5C426.1,309.3,426.3,322.1,418.5,330.2z"/>
            </g>
        </g>
        <g>
            <g>
                <rect x="392" y="312" class="st0" width="16" height="16"/>
            </g>
        </g>
        <g>
            <g>
                <rect x="360" y="344" class="st0" width="16" height="16"/>
            </g>
        </g>
        <g>
            <g>
                <path class="st0" d="M109.7,306.3c-3.6-3.6-5.7-8.5-5.7-13.7c0-11.4-9.3-20.7-20.7-20.7h-6.6c-11.4,0-20.7,9.3-20.7,20.7
                    c0,5.1-2,10-5.7,13.7c-6.6,6.6-10.4,15.6-10.3,25v1.4c0,19.5,15.8,35.3,35.3,35.3h9.4c19.5,0,35.3-15.8,35.3-35.3v-1.4
                    C120,321.9,116.3,313,109.7,306.3z M104,332.7c0,10.7-8.7,19.3-19.3,19.3h-9.4c-10.7,0-19.3-8.7-19.3-19.3v-1.4
                    c0-5.1,2-10,5.7-13.7c6.6-6.6,10.4-15.6,10.3-25c0-2.6,2.1-4.7,4.7-4.7h6.6c2.6,0,4.7,2.1,4.7,4.7c0,9.4,3.7,18.4,10.3,25
                    c3.6,3.6,5.7,8.5,5.7,13.7L104,332.7L104,332.7z"/>
            </g>
        </g>
        <g>
            <g>
                <path class="st0" d="M183.6,208l11.7-11.7c12-12,12-31.3,0-43.3c-5.7-5.7-13.5-9-21.7-9h-2.2c-3.8-18.6-20.2-32-39.2-32h-4.7
                    l-1.7-1.7c-14.2-14.2-37.1-14.2-51.3,0s-14.2,37.1,0,51.3l1.7,1.7v4.7c0,19,13.4,35.4,32,39.2v2.2c0,16.9,13.7,30.6,30.6,30.6
                    c8.1,0,15.9-3.2,21.7-9l11.7-11.7l26.3,26.3l11.3-11.3L183.6,208z M172.3,196.7l-26.3-26.3l-11.3,11.3L161,208l-11.7,11.7
                    c-5.7,5.7-15,5.7-20.7,0c-2.7-2.7-4.3-6.5-4.3-10.3V192h-8c-13.3,0-24-10.7-24-24v-11.3l-6.3-6.3c-8.6-7.2-10.9-18.7-3.7-27.3
                    c0.8-1,1.7-1.8,3.7-1.4c7.9-7.9,20.8-7.9,28.7,0l6.3,6.3h11.3c13.3,0,24,10.7,24,24v8h17.4c8.1,0,14.6,6.5,14.6,14.6
                    c0,3.9-1.5,7.6-4.3,10.4L172.3,196.7z"/>
            </g>
        </g>
        <g>
            <g>
                <path class="st0" d="M316,248h-4c0-15.5-12.5-28-28-28s-28,12.5-28,28h-4c-15.5,0-28,12.5-28,28s12.5,28,28,28h4v32h56v-32h4
                    c15.5,0,28-12.5,28-28S331.5,248,316,248z M296,320h-24v-16h24V320z M316,288h-64c-6.6,0-12-5.4-12-12s5.4-12,12-12h20v-16
                    c0-6.6,5.4-12,12-12s12,5.4,12,12v16h20c6.6,0,12,5.4,12,12S322.6,288,316,288z"/>
            </g>
        </g>
        <g>
            <g>
                <path class="st0" d="M176,256h-8c-22.1,0-40,17.9-40,40v8c0,8.8,7.2,16,16,16h8c22.1,0,40-17.9,40-40v-8
                    C192,263.2,184.8,256,176,256z M176,280c0,13.3-10.7,24-24,24h-8v-8c0-13.3,10.7-24,24-24h8V280z"/>
            </g>
        </g>
        <g>
            <g>
                <path class="st0" d="M408,152c-17.6,0-34.2,8.3-44.8,22.4C356,184.1,352,195.9,352,208v16c0,10.1,6.4,19.1,16,22.5V264h16v-17.5
                    c9.6-3.4,16-12.4,16-22.5v-9.6c0-7.8,2.3-15.5,6.7-22c6.1-9.1,9.3-19.8,9.3-30.8V152H408z M393.3,183.6
                    c-6.1,9.1-9.3,19.9-9.3,30.8v9.6c0,4.4-3.6,8-8,8s-8-3.6-8-8v-16c0-18.7,13-35,31.3-39C398.3,174.2,396.3,179.1,393.3,183.6z"/>
            </g>
        </g>
        <g>
            <g>
                <path class="st0" d="M254.5,16C251.1,6.4,242.1,0,232,0h-16c-30.9,0-56,25.1-56,56v8h9.6c11,0,21.7-3.2,30.8-9.3
                    c6.5-4.3,14.1-6.7,22-6.7h9.6c10.1,0,19.1-6.4,22.5-16H272V16H254.5z M232,32h-9.6c-11,0-21.7,3.2-30.9,9.3c-4.4,2.9-9.4,5-14.6,6
                    C179,38,184.4,29.7,192,24c6.9-5.2,15.3-8,24-8h16c4.4,0,8,3.6,8,8S236.4,32,232,32z"/>
            </g>
        </g>
        <g>
            <g>
                <path class="st0" d="M280,64.9V48h-16v16.9c-18.2,4.1-30.2,21.4-27.7,39.9l9.7,72.4c1.9,14.4,15.1,24.5,29.5,22.6
                    c11.8-1.6,21-10.8,22.6-22.6l9.6-72.4C310.2,86.3,298.2,69,280,64.9z M291.8,102.7l-3.4,25.3H272v16h14.3l-4.1,31.1
                    c-0.7,5.6-5.9,9.6-11.5,8.8c-4.6-0.6-8.2-4.2-8.8-8.8l-8.4-63.1H272V96h-19.5c2.2-10.8,12.8-17.8,23.6-15.5
                    C286.3,82.6,293.2,92.3,291.8,102.7z"/>
            </g>
        </g>
        <g>
            <g>
                <path class="st0" d="M352,112h-8c-13.3,0-24,10.7-24,24s10.7,24,24,24h8c13.3,0,24-10.7,24-24S365.3,112,352,112z M352,144h-8
                    c-4.4,0-8-3.6-8-8s3.6-8,8-8h8c4.4,0,8,3.6,8,8S356.4,144,352,144z"/>
            </g>
        </g>
        <g>
            <g>
                <path class="st0" d="M200,80h-8c-13.3,0-24,10.7-24,24s10.7,24,24,24h8c13.3,0,24-10.7,24-24S213.3,80,200,80z M200,112h-8
                    c-4.4,0-8-3.6-8-8s3.6-8,8-8h8c4.4,0,8,3.6,8,8S204.4,112,200,112z"/>
            </g>
        </g>

    </symbol>


    <symbol id="yoga" viewBox="0 0 512 512">
        <g>
            <path class="st0" d="M326,70c0-38.6-31.4-70-70-70s-70,31.4-70,70s31.4,70,70,70S326,108.6,326,70z M256,120c-27.6,0-50-22.4-50-50
                s22.4-50,50-50s50,22.4,50,50S283.6,120,256,120z"/>
            <path class="st0" d="M118,280c18.3,0,37.6-3.2,53.8-8.8c4.6,24,9.2,48.5,11.9,71.7c-44.8,1.4-75.3,4.6-98,10.3
                C52.7,361.4,36,376.2,36,397c0,24.4,24.1,52.6,64.4,75.5c4.8,2.8,10.9,1,13.6-3.8c2.7-4.8,1-10.9-3.8-13.6
                C72.8,433.8,56,410.6,56,397c0-27.9,79.3-33,138.9-34.4c19.3,9,40.2,13.6,61.1,13.6s41.8-4.5,61.1-13.6
                C376.7,364,456,369.1,456,397c0,33.6-68.6,67.9-101.3,78.9c-2.9-13.5-10.3-25.7-21.3-34.5c-3.2-2.5-6.6-4.7-10.1-6.6
                c16.6-6.8,32.7-12.9,52.8-12.9c5.5,0,10-4.5,10-10s-4.5-10-10-10c-25.4,0-44.9,8-63.8,15.7c-11.4,4.7-22.1,9.1-33.9,11.7
                c0,0-0.1,0-0.1,0c-5.8,1.4-14.2,2.5-22.1,2.5c-21.5,0-38.3-6.9-56.2-14.3C180.9,410,161.4,402,136,402c-5.5,0-10,4.5-10,10
                s4.5,10,10,10c21.5,0,38.3,6.9,56.2,14.3C211.1,444,230.6,452,256,452c9.8,0,19.9-1.4,27.2-3.1c13.5-3.1,27.2-0.1,37.7,8.2
                c7.9,6.3,12.9,14.9,14.6,24.6c-25.9,6.9-52.6,10.3-79.4,10.3c-21.6,0-43.3-2.3-64.6-6.8c-5.4-1.1-10.7,2.3-11.9,7.7
                c-1.1,5.4,2.3,10.7,7.7,11.9c22.6,4.8,45.7,7.2,68.7,7.2c120.2,0,220-66.3,220-115c0-49.4-94.9-52.5-147.6-54.1
                c2.7-23.2,7.3-47.7,11.9-71.7c16.2,5.6,35.2,8.8,53.8,8.8c53.3,0,115.2-29.9,118-81.5c0.2-3.5-1.4-6.8-4.3-8.8
                c-2.8-2-6.5-2.4-9.7-1c-16.2,7-38.2,11.2-59,11.2c-57.3,0-86.9-29.3-90.2-30.7c-26.5-19-58.7-29.3-92-29.3h-1.4
                c-10.4,0-20.9,1-31.1,3c-27.9,5.2-59.4,23.1-64.4,28.8C134.1,191.2,104.7,200,73,200c-20.8,0-42.9-4.2-59-11.2
                c-3.2-1.4-6.8-1-9.7,1s-4.5,5.3-4.3,8.8C2.9,250.2,64.9,280,118,280L118,280z M204,344.7c-5.5-52.4-21-109.6-26.2-161.2
                c11.6-7.9,24.6-14,38.2-17.9V180c0,22.1,17.9,40,40,40s40-17.9,40-40v-14.4c13.6,4,26.6,10.1,38.2,17.9
                c-5.2,51.1-20.6,108.7-26.2,161.2C275.1,359.9,236.9,359.9,204,344.7L204,344.7z M439,220c16.4,0,33.6-2.4,48.9-6.5
                C475.4,239.9,436.9,260,394,260c-17.3,0-35.4-3.2-50-8.7c3.5-18.4,6.6-36.6,8.9-54.4C376.2,211.5,407.5,220,439,220z M256.7,160
                c6.4,0,12.9,0.5,19.3,1.3V180c0,11-9,20-20,20s-20-9-20-20v-18.7c6.4-0.9,12.8-1.3,19.3-1.3H256.7z M73,220
                c31.5,0,62.8-8.5,86.1-23.1c2.3,18,5.5,36.5,8.9,54.4c-14.6,5.5-32.7,8.7-50,8.7c-42.9,0-81.4-20.1-93.9-46.5
                C39.4,217.6,56.6,220,73,220z"/>
            <circle class="st0" cx="146" cy="483" r="10"/>
        </g>
    </symbol>


     <symbol id="vk" viewBox="0 0 512 512">
        <path d="M545.451,400.298c-0.664-1.431-1.283-2.618-1.858-3.569c-9.514-17.135-27.695-38.167-54.532-63.102l-0.567-0.571
            l-0.284-0.28l-0.287-0.287h-0.288c-12.18-11.611-19.893-19.418-23.123-23.415c-5.91-7.614-7.234-15.321-4.004-23.13
            c2.282-5.9,10.854-18.36,25.696-37.397c7.807-10.089,13.99-18.175,18.556-24.267c32.931-43.78,47.208-71.756,42.828-83.939
            l-1.701-2.847c-1.143-1.714-4.093-3.282-8.846-4.712c-4.764-1.427-10.853-1.663-18.278-0.712l-82.224,0.568
            c-1.332-0.472-3.234-0.428-5.712,0.144c-2.475,0.572-3.713,0.859-3.713,0.859l-1.431,0.715l-1.136,0.859
            c-0.952,0.568-1.999,1.567-3.142,2.995c-1.137,1.423-2.088,3.093-2.848,4.996c-8.952,23.031-19.13,44.444-30.553,64.238
            c-7.043,11.803-13.511,22.032-19.418,30.693c-5.899,8.658-10.848,15.037-14.842,19.126c-4,4.093-7.61,7.372-10.852,9.849
            c-3.237,2.478-5.708,3.525-7.419,3.142c-1.715-0.383-3.33-0.763-4.859-1.143c-2.663-1.714-4.805-4.045-6.42-6.995
            c-1.622-2.95-2.714-6.663-3.285-11.136c-0.568-4.476-0.904-8.326-1-11.563c-0.089-3.233-0.048-7.806,0.145-13.706
            c0.198-5.903,0.287-9.897,0.287-11.991c0-7.234,0.141-15.085,0.424-23.555c0.288-8.47,0.521-15.181,0.716-20.125
            c0.194-4.949,0.284-10.185,0.284-15.705s-0.336-9.849-1-12.991c-0.656-3.138-1.663-6.184-2.99-9.137
            c-1.335-2.95-3.289-5.232-5.853-6.852c-2.569-1.618-5.763-2.902-9.564-3.856c-10.089-2.283-22.936-3.518-38.547-3.71
            c-35.401-0.38-58.148,1.906-68.236,6.855c-3.997,2.091-7.614,4.948-10.848,8.562c-3.427,4.189-3.905,6.475-1.431,6.851
            c11.422,1.711,19.508,5.804,24.267,12.275l1.715,3.429c1.334,2.474,2.666,6.854,3.999,13.134c1.331,6.28,2.19,13.227,2.568,20.837
            c0.95,13.897,0.95,25.793,0,35.689c-0.953,9.9-1.853,17.607-2.712,23.127c-0.859,5.52-2.143,9.993-3.855,13.418
            c-1.715,3.426-2.856,5.52-3.428,6.28c-0.571,0.76-1.047,1.239-1.425,1.427c-2.474,0.948-5.047,1.431-7.71,1.431
            c-2.667,0-5.901-1.334-9.707-4c-3.805-2.666-7.754-6.328-11.847-10.992c-4.093-4.665-8.709-11.184-13.85-19.558
            c-5.137-8.374-10.467-18.271-15.987-29.691l-4.567-8.282c-2.855-5.328-6.755-13.086-11.704-23.267
            c-4.952-10.185-9.329-20.037-13.134-29.554c-1.521-3.997-3.806-7.04-6.851-9.134l-1.429-0.859c-0.95-0.76-2.475-1.567-4.567-2.427
            c-2.095-0.859-4.281-1.475-6.567-1.854l-78.229,0.568c-7.994,0-13.418,1.811-16.274,5.428l-1.143,1.711
            C0.288,140.146,0,141.668,0,143.763c0,2.094,0.571,4.664,1.714,7.707c11.42,26.84,23.839,52.725,37.257,77.659
            c13.418,24.934,25.078,45.019,34.973,60.237c9.897,15.229,19.985,29.602,30.264,43.112c10.279,13.515,17.083,22.176,20.412,25.981
            c3.333,3.812,5.951,6.662,7.854,8.565l7.139,6.851c4.568,4.569,11.276,10.041,20.127,16.416
            c8.853,6.379,18.654,12.659,29.408,18.85c10.756,6.181,23.269,11.225,37.546,15.126c14.275,3.905,28.169,5.472,41.684,4.716h32.834
            c6.659-0.575,11.704-2.669,15.133-6.283l1.136-1.431c0.764-1.136,1.479-2.901,2.139-5.276c0.668-2.379,1-5,1-7.851
            c-0.195-8.183,0.428-15.558,1.852-22.124c1.423-6.564,3.045-11.513,4.859-14.846c1.813-3.33,3.859-6.14,6.136-8.418
            c2.282-2.283,3.908-3.666,4.862-4.142c0.948-0.479,1.705-0.804,2.276-0.999c4.568-1.522,9.944-0.048,16.136,4.429
            c6.187,4.473,11.99,9.996,17.418,16.56c5.425,6.57,11.943,13.941,19.555,22.124c7.617,8.186,14.277,14.271,19.985,18.274
            l5.708,3.426c3.812,2.286,8.761,4.38,14.853,6.283c6.081,1.902,11.409,2.378,15.984,1.427l73.087-1.14
            c7.229,0,12.854-1.197,16.844-3.572c3.998-2.379,6.373-5,7.139-7.851c0.764-2.854,0.805-6.092,0.145-9.712
            C546.782,404.25,546.115,401.725,545.451,400.298z"/>
    </symbol>


    <symbol id="fb" viewBox="0 0 430.113 430.114">
        <path id="Facebook" d="M158.081,83.3c0,10.839,0,59.218,0,59.218h-43.385v72.412h43.385v215.183h89.122V214.936h59.805
		c0,0,5.601-34.721,8.316-72.685c-7.784,0-67.784,0-67.784,0s0-42.127,0-49.511c0-7.4,9.717-17.354,19.321-17.354
		c9.586,0,29.818,0,48.557,0c0-9.859,0-43.924,0-75.385c-25.016,0-53.476,0-66.021,0C155.878-0.004,158.081,72.48,158.081,83.3z"/>
    </symbol>


    <symbol id="insta" viewBox="0 0 512 512">
        <g>
            <g>
                <path d="M352,0H160C71.648,0,0,71.648,0,160v192c0,88.352,71.648,160,160,160h192c88.352,0,160-71.648,160-160V160
                    C512,71.648,440.352,0,352,0z M464,352c0,61.76-50.24,112-112,112H160c-61.76,0-112-50.24-112-112V160C48,98.24,98.24,48,160,48
                    h192c61.76,0,112,50.24,112,112V352z"/>
            </g>
        </g>
        <g>
            <g>
                <path d="M256,128c-70.688,0-128,57.312-128,128s57.312,128,128,128s128-57.312,128-128S326.688,128,256,128z M256,336
                    c-44.096,0-80-35.904-80-80c0-44.128,35.904-80,80-80s80,35.872,80,80C336,300.096,300.096,336,256,336z"/>
            </g>
        </g>
        <g>
            <g>
                <circle cx="393.6" cy="118.4" r="17.056"/>
            </g>
        </g>
    </symbol>

    <symbol id="vtoroe" viewBox="0 0 512 512">
        <g>
        <path style="fill:#3E6394;" d="M113.1,198.1c3.1-2.7,3.3-7.4,0.6-10.5c-2.7-3.1-7.4-3.3-10.5-0.6c-3.1,2.7-3.3,7.4-0.6,10.5
            C105.4,200.6,110.1,200.9,113.1,198.1z M75.6,228.6c1.2-3.9-1-8.1-4.9-9.3c-3.9-1.2-8.1,1-9.3,4.9c-1.2,3.9,1,8.1,4.9,9.3
            C70.3,234.7,74.4,232.5,75.6,228.6z M355.1,208.7c-4,0.8-6.7,4.7-5.9,8.7s4.7,6.7,8.7,5.9c4-0.8,6.7-4.7,5.9-8.7
            C363,210.6,359.1,207.9,355.1,208.7L355.1,208.7z M138.4,195.1c3.1-2.7,3.3-7.4,0.6-10.5c-2.7-3.1-7.4-3.3-10.5-0.6
            c-3.1,2.7-3.3,7.4-0.6,10.5C130.6,197.6,135.3,197.8,138.4,195.1L138.4,195.1z M153.2,162.5c3.1-2.7,3.3-7.4,0.6-10.5
            c-2.7-3.1-7.4-3.3-10.5-0.6c-3.1,2.7-3.3,7.4-0.6,10.5C145.4,165,150.1,165.3,153.2,162.5z M120.3,166.1c3.1-2.7,3.3-7.4,0.6-10.5
            c-2.7-3.1-7.4-3.3-10.5-0.6c-3.1,2.7-3.3,7.4-0.6,10.5C112.5,168.5,117.2,168.8,120.3,166.1z M387.6,351.4c-2.9,2.9-2.9,7.6,0,10.5
            c2.9,2.9,7.6,2.9,10.5,0s2.9-7.6,0-10.5C395.2,348.5,390.5,348.5,387.6,351.4z M424.1,255.5c1-4-1.5-8-5.5-9c-4-1-8,1.5-9,5.5
            c-1,4,1.5,8,5.5,9C419.1,261.9,423.1,259.5,424.1,255.5L424.1,255.5z M405.9,298.6c-4-1-8,1.5-9,5.5c-1,4,1.5,8,5.5,9
            c4,1,8-1.5,9-5.5C412.4,303.6,409.9,299.6,405.9,298.6z M430.9,277.3c-4-1-8,1.5-9,5.5c-1,4,1.5,8,5.5,9c4,1,8-1.5,9-5.5
            C437.3,282.3,434.9,278.2,430.9,277.3L430.9,277.3z M434.6,79.1C386.7,31.2,323,4.9,255.3,4.9S123.9,31.2,76,79.1
            C28.1,127,1.7,190.7,1.7,258.4S28.1,389.8,76,437.7c47.9,47.9,111.6,74.3,179.3,74.3s131.4-26.4,179.3-74.3s74.3-111.6,74.3-179.3
            S482.5,127,434.6,79.1L434.6,79.1z M424.1,427.2c-45.1,45.1-105,69.9-168.8,69.9s-123.7-24.8-168.8-69.9s-69.9-105-69.9-168.8
            S41.4,134.7,86.5,89.6s105-69.9,168.8-69.9S379,44.5,424.1,89.6s69.9,105,69.9,168.8S469.2,382.1,424.1,427.2z M455.5,247.2
            c-4.1-6.7-9.3-12.5-15.4-17.1c-6.6-43.2-28.2-82.9-61.3-112c-34.1-30.1-78-46.7-123.6-46.7c-46.6,0-91,17.1-125.4,48.3
            c-14.2,0.5-27.6,5.9-38.3,15.5c-12.8,11.4-19.7,27-20.5,42.9c-17.2,6.8-30.5,21.1-36,39c-9.5,30.9,6.6,63.6,36.3,75.2
            c3.6,19.9,10.5,39,20.3,56.7c-4.8,27.5,3.1,56,23.9,76.8c27,27,67.9,32.7,101,15.7c12.7,2.7,25.7,4.1,38.8,4.1
            c7.2,0,14.5-0.4,21.7-1.2c4.1-0.5,7-4.2,6.5-8.2c-0.5-4.1-4.2-7-8.2-6.5c-6.6,0.8-13.3,1.1-20,1.1c-7.1,0-14.2-0.4-21.2-1.3
            c2.3-2.2,3.7-5.3,3.8-8.6c0.1-3.4-1.2-6.7-3.6-9.2L129.6,306.9c-2.4-2.4-5.8-3.7-9.2-3.6c-3.4,0.1-6.7,1.7-8.9,4.2
            c-5.6,6.4-10.2,13.5-13.6,21c-4.6-10.4-8.2-21.2-10.7-32.3c2.2,0.2,4.4,0.4,6.6,0.4c19.4,0,37.9-9.2,49.6-25.4l10.7,2.8l15.5,47.7
            c1.5,4.6,5.6,7.8,10.4,8.1c4.8,0.3,9.3-2.3,11.4-6.7l21.1-44.5c9.8-1.5,19.3-4.1,28.3-7.8c-3.3,12.8-4.6,26.1-3.7,39.4l-39,30.1
            c-3.8,3-5.4,7.9-4.1,12.5c1.3,4.7,5.3,8,10.2,8.5l49.9,5l22.9,44.6c2,4,6.1,6.4,10.5,6.4c5.2,0,9.9-3.5,11.3-8.5l13.7-47.3
            c1.2-0.4,2.3-0.8,3.5-1.2c3.1,8.1,7.8,15.5,14,21.6c7.7,7.7,17,12.9,26.8,15.7c-14.9,10.9-31.4,19.3-49.2,25
            c-3.9,1.2-6.1,5.4-4.8,9.3c1.3,4,5.5,6,9.3,4.8c24.3-7.7,46.5-20.2,65.8-37c14.2-1,28.1-6.9,38.9-17.8c13.2-13.2,19.6-31.6,17.6-50
            c14.3-8.5,24.4-22.1,28.3-38.2C466.6,277.7,464.1,261.2,455.5,247.2L455.5,247.2z M221.9,420.2c-10,8.1-21.6,13.1-33.6,15
            l-3.1-51.7L221.9,420.2z M173.5,436.1c-15-0.7-29.8-6-42-15.9l38.8-38.8L173.5,436.1z M121,319.3l36.6,36.6l-51.7-3.1
            C107.9,340.8,112.9,329.2,121,319.3z M159.8,370.9L121,409.7c-9.9-12.2-15.2-27-15.9-42L159.8,370.9z M255.3,86.3
            c41.9,0,82.4,15.3,113.8,43c27.5,24.3,46.5,56.5,54.3,91.9c-8.2-2.8-17-4-25.5-3.2c-2.1-11.5-5.9-22.8-11.3-33.6
            c-2.2-4.5-6.7-7.5-11.7-8c-20.1-1.8-40.5,1.3-59.1,8.8c5.8-22.6,5.4-46.8-1.9-69.8c-1.5-4.8-5.5-8.5-10.3-9.8
            c-44.8-11.4-92.5,3-123.9,36.4c-7.8-9.5-18.1-16.3-29.7-19.7C180,98.9,216.9,86.3,255.3,86.3L255.3,86.3z M383.2,262.1
            c-15.3-0.7-32.1-6.6-46.9-16.6c-13.4-9.2-24.3-21-30.8-33.7c1.2-2.3,2.3-4.6,3.3-6.9c19.5-10.9,42.3-15.8,64.6-13.8
            C384.6,213.4,387.7,238.4,383.2,262.1z M101.5,146.2c20.3-18.1,52.3-14.8,68.5,7.3c-13.4,18.2-21.5,39.5-23.7,62.3l-20.6,11.2
            c-10.9-1.6-20.8-6.9-28.1-15.2C80.5,192.8,82.3,163.3,101.5,146.2L101.5,146.2z M80,279.6c-24.5-7.6-38.3-33.7-30.8-58.2
            c3.7-12.1,12.1-21.9,23.1-27.6c2.1,10.1,6.8,19.8,14.1,28.1c5.9,6.6,13,11.8,20.9,15.3c-6,2.3-11.2,7.3-10.3,14.1
            c0.6,4.8,4,8.7,8.7,10l22,5.8C115.8,279.8,97.4,284.9,80,279.6L80,279.6z M210.2,263.8c-4.8,0.7-9,3.8-11,8.2l-17.8,37.6
            l-13.6-41.9c-1.2-3.8-4.3-6.7-8.2-7.7L117,248.8l36.5-19.9c4.3-2.3,7.1-6.6,7.6-11.5c2.4-24.9,12.7-47.7,30-66
            c7.1-7.5,15.1-13.9,23.7-19c2.1,6.9,5.2,13.8,9.1,20.6c2.1,3.6,6.7,4.7,10.2,2.7c3.5-2.1,4.7-6.6,2.7-10.2
            c-3.8-6.5-6.7-13.4-8.5-20c22.2-9.5,47.3-11.7,71.5-5.6c7.5,23.8,6.7,49-1.6,71.7c-14-2.8-28.3-10.3-40.9-21.3
            c-3.1-2.7-7.8-2.4-10.5,0.7c-2.7,3.1-2.4,7.8,0.7,10.5c13.5,11.9,29.1,20.2,44.6,24c-4.7,8.9-10.6,17.2-17.7,24.7
            C257.2,248.4,235.1,260,210.2,263.8L210.2,263.8z M307.8,347.3c-4.6,1.5-8.2,5.2-9.6,9.9l-11.6,39.9l-20.1-39.2
            c-1.8-3.6-5.3-5.9-9.3-6.3l-43.8-4.4l32.9-25.4c3.9-3,6-7.7,5.7-12.5c-1-16.3,1.6-32.8,7.5-47.9c9.4-5.8,18-12.8,25.8-21
            c4.2-4.5,8.1-9.2,11.5-14.2c7.7,11.9,18.4,22.8,31.2,31.5c16.3,11.1,34.2,17.7,51.4,19c-3.2,9.5-7.7,18.7-13.5,27.2
            C351.7,324.7,331.6,339.7,307.8,347.3z M406.3,371.4c-18.2,18.2-47.7,18.2-65.8,0c-4.8-4.8-8.5-10.6-10.8-16.9
            c13.6-6.7,25.7-15.7,36.1-26.7c15.2,11.7,35.8,15.7,54.2,10.3C420,350.5,415.2,362.5,406.3,371.4z M448.3,290.1
            c-2.9,12.1-10.4,22.3-21.1,28.7c-16.1,9.8-37.1,8.7-52-2.5c9.9-13.4,17-28.6,21-44.2c3-12.1,4.4-27.3,3.6-39.5
            c17.3-1.3,34,7.4,43.1,22.3C449.3,265.5,451.2,278,448.3,290.1z M317,309.8l-29.6-22.9c-3.2-2.5-7.9-1.9-10.4,1.3
            c-2.5,3.2-1.9,7.9,1.3,10.4l29.6,22.9c3.2,2.5,7.9,1.9,10.4-1.3C320.8,317,320.2,312.3,317,309.8z M196.4,203.5
            c-2.9-2.9-7.6-2.9-10.5,0c-2.9,2.9-2.9,7.6,0,10.5l26.4,26.5c2.9,2.9,7.6,2.9,10.5,0c2.9-2.9,2.9-7.6,0-10.5L196.4,203.5z
            M279.3,149.3c4.1-0.1,7.3-3.5,7.2-7.6c-0.1-4.1-3.5-7.3-7.6-7.2c-4.1,0.1-7.3,3.5-7.2,7.6C271.8,146.2,275.2,149.4,279.3,149.3z
            M355.1,356.7c-2.9,2.9-2.9,7.6,0,10.5c2.9,2.9,7.6,2.9,10.5,0c2.9-2.9,2.9-7.6,0-10.5C362.8,353.8,358,353.8,355.1,356.7z
            M216.9,183.1c-2.9-2.9-7.6-2.9-10.5,0c-2.9,2.9-2.9,7.6,0,10.5l26.4,26.5c2.9,2.9,7.6,2.9,10.5,0s2.9-7.6,0-10.5L216.9,183.1z
            M81.2,250.4c-3.9-1.2-8.1,1-9.3,4.9c-1.2,3.9,1,8.1,4.9,9.3c3.9,1.2,8.1-1,9.3-4.9C87.4,255.8,85.2,251.6,81.2,250.4L81.2,250.4z
            M334.7,286.9L305.1,264c-3.2-2.5-7.9-1.9-10.4,1.3c-2.5,3.2-1.9,7.9,1.3,10.4l29.6,22.9c3.2,2.5,7.9,1.9,10.4-1.3
            C338.5,294.1,337.9,289.4,334.7,286.9z"/>
        </g>
    </symbol>

    <symbol id="soup" viewBox="0 0 512 512">
    <g>
        <path style="fill:#3E6394;" d="M93.4,129.4c29,0,54.5-15.3,65.3-38.7c42.5,4.4,85.3,7,128.1,7.9l-7,12.9l-22.5,12.3
            c-3.8,2.1-5.2,6.9-3.1,10.7c0.7,1.3,1.8,2.4,3.1,3.1l22.5,12.3l12.3,22.5c2.1,3.8,6.9,5.2,10.7,3.1c1.3-0.7,2.4-1.8,3.1-3.1
            l12.3-22.5l22.5-12.3c3.8-2.1,5.2-6.9,3.1-10.7c-0.7-1.3-1.8-2.4-3.1-3.1l-22.5-12.3L311.4,99c21.8,0.1,43.5-0.2,65.2-1
            c36.8-1.3,73.9-4,110.6-7.9c4-0.4,7-3.8,7-7.8V58.7c0-4-3-7.4-7-7.8c-36.6-3.9-73.8-6.6-110.6-7.9c-72-2.5-144.1-0.1-215.7,7.3
            C149,22.2,122.6,3.7,93.4,3.7c-39,0-70.7,28.2-70.7,62.9S54.5,129.4,93.4,129.4L93.4,129.4z M320.6,130.7l-12,6.5
            c-1.3,0.7-2.4,1.8-3.1,3.1l-6.5,12l-6.5-12c-0.7-1.3-1.8-2.4-3.1-3.1l-12-6.5l12-6.5c1.3-0.7,2.4-1.8,3.1-3.1l6.5-12l6.5,12
            c0.7,1.3,1.8,2.4,3.1,3.1L320.6,130.7z M93.4,19.4c24.4,0,46.4,16.8,54.8,41.8c1.2,3.5,4.6,5.7,8.3,5.3
            c72.9-7.8,146.3-10.4,219.5-7.8c34,1.2,68.5,3.6,102.4,7.1v9.4c-34,3.5-68.4,5.9-102.4,7.1c-73.9,2.6-147.9,0-221.5-7.8
            c-3.7-0.4-7.1,1.8-8.3,5.3c-6.8,20-28.5,34-52.8,34c-30.3,0-55-21.1-55-47.1S63.1,19.4,93.4,19.4z"/>
        <path style="fill:#3E6394;" d="M195.6,412.3c10.1,10.1,25.3,15.7,42.2,15.7c1,0,2,0,3.1-0.1c38.4-1.1,69.3-32,70.4-70.4
            c0.4-8.3-0.7-16.6-3.3-24.5l27.4-27.3c11.7,5.6,25.8,0.7,31.4-11.1s0.7-25.8-11.1-31.4c-2.8-1.3-5.8-2.1-8.9-2.3
            c-0.7-13-11.8-23-24.8-22.2c-13,0.7-23,11.8-22.2,24.8c0.2,3.1,0.9,6.1,2.3,8.9l-27.3,27.4c-7.9-2.5-16.2-3.6-24.5-3.2
            c-38.4,1.1-69.3,32-70.4,70.4C179.2,385.2,184.9,401.7,195.6,412.3L195.6,412.3z M317.8,279c3.1-3.1,3-8,0-11.1
            c-3.1-3.1-3.1-8,0-11.1c3.1-3.1,8-3.1,11.1,0s3.1,8,0,11.1c0,0,0,0,0,0c-3,3.1-3,8.1,0.1,11.1c3.1,3,8,3,11,0c3.1-3.1,8-3.1,11.1,0
            c3.1,3.1,3.1,8,0,11.1c-3.1,3.1-8,3.1-11.1,0c-3.1-3.1-8-3.1-11.1,0l-28.4,28.2c-3-4.3-6.7-8-10.9-10.9L317.8,279z M212.2,329
            c17.6-17.6,53.8-24,72.2-5.6c18.5,18.5,12.1,54.6-5.6,72.2c-10.4,10.2-24.2,16.1-38.7,16.6c-13.5,0.5-26-3.6-33.5-11
            C188.2,382.7,194.6,346.6,212.2,329L212.2,329z"/>
        <path style="fill:#3E6394;" d="M113.1,293.4l55,31.4c3.8,2.2,8.6,0.8,10.7-2.9c0.7-1.2,1-2.5,1-3.9v-62.9c0-4.3-3.5-7.9-7.9-7.9
            c-1.4,0-2.7,0.4-3.9,1l-55,31.4c-3.8,2.2-5.1,7-2.9,10.7C110.9,291.7,111.9,292.7,113.1,293.4z M164.2,268.7v35.8l-31.3-17.9
            L164.2,268.7z"/>
        <path style="fill:#3E6394;" d="M373.2,421.7l-31.4-23.6c-3.4-2.5-8.2-1.9-10.8,1.4l-31.4,39.3c-2.7,3.4-2.2,8.3,1.2,11
            c0.1,0.1,0.1,0.1,0.2,0.2l31.4,23.6c3.4,2.5,8.2,1.9,10.8-1.4l31.4-39.3c2.7-3.4,2.2-8.3-1.2-11
            C373.3,421.8,373.2,421.8,373.2,421.7z M335.6,456.4l-18.8-14.1l21.6-27l18.8,14.1L335.6,456.4z"/>
        <path style="fill:#3E6394;" d="M160.2,412.3c-15.2,0-27.5,12.3-27.5,27.5s12.3,27.5,27.5,27.5s27.5-12.3,27.5-27.5
            C187.7,424.6,175.4,412.3,160.2,412.3z M160.2,451.6c-6.5,0-11.8-5.3-11.8-11.8s5.3-11.8,11.8-11.8s11.8,5.3,11.8,11.8l0,0
            C172,446.3,166.7,451.6,160.2,451.6z"/>
        <path style="fill:#3E6394;" d="M238.8,286.6c15.2,0,27.5-12.3,27.5-27.5s-12.3-27.5-27.5-27.5c-15.2,0-27.5,12.3-27.5,27.5
            C211.3,274.3,223.6,286.6,238.8,286.6z M238.8,247.3c6.5,0,11.8,5.3,11.8,11.8c0,6.5-5.3,11.8-11.8,11.8c-6.5,0-11.8-5.3-11.8-11.8
            C227,252.6,232.3,247.3,238.8,247.3z"/>
        <path style="fill:#3E6394;" d="M337,361.2c0,15.2,12.3,27.5,27.5,27.5s27.5-12.3,27.5-27.5s-12.3-27.5-27.5-27.5
            C349.3,333.7,337,346,337,361.2z M376.3,361.2c0,6.5-5.3,11.8-11.8,11.8s-11.8-5.3-11.8-11.8s5.3-11.8,11.8-11.8
            C371,349.4,376.3,354.7,376.3,361.2z"/>
        <path style="fill:#3E6394;" d="M502,184.4H14.9c-4.3,0-7.9,3.5-7.9,7.9v23.6c0,4.3,3.5,7.9,7.9,7.9h56l32.3,233.9c4.1,28,28.1,48.8,56.4,48.9
            h191c27.8,0,51.5-20,56.2-47.4l39.1-235.5H502c4.3,0,7.9-3.5,7.9-7.9v-23.6C509.9,188,506.3,184.4,502,184.4L502,184.4z
            M391.3,456.6c-3.4,19.8-20.6,34.3-40.7,34.3h-191c-20.5-0.1-37.8-15.1-40.8-35.4l-32-231.8h343.1L391.3,456.6z M494.1,208H22.7
            v-7.9h471.4V208z"/>
        <path style="fill:#3E6394;" d="M124.8,342.8l15.6-2.2l7.8,55l-15.6,2.2L124.8,342.8z"/>
        <path style="fill:#3E6394;" d="M213.5,359.6l15.7-15.7l11.1,11.1l-15.7,15.7L213.5,359.6z"/>
        <path style="fill:#3E6394;" d="M94.5,97.7c7.6-1.1,14.7-4.6,20.1-10l-11-11.2c-3.1,3-7,5-11.3,5.7c-9.1,1.3-15.8-4.6-17.1-5.8L64.5,87.8
            c2.7,2.6,12,10.3,25.2,10.3C91.3,98,92.9,97.9,94.5,97.7z"/>
        <path style="fill:#3E6394;" d="M179.9,137.3h15.7V153h-15.7V137.3z"/>
        <path style="fill:#3E6394;" d="M454.9,325.9h15.7v15.7h-15.7V325.9z"/>
        <path style="fill:#3E6394;" d="M38.4,294.4h15.7v15.7H38.4V294.4z"/>
    </g>
    </symbol>

    <symbol id="garnir" viewBox="0 0 512 512">
        <g id="outline">
            <path style="fill:#3E6394;" d="M479.5,42.4H337.9l-23.3-15.5c-1.4-0.9-3-1.4-4.7-1.4h-17c0-14-11.4-25.4-25.4-25.4c-6.3,0-12.3,2.3-17,6.5
                c-9.6-8.7-24.3-8.7-33.9,0C206.1-2.9,190-2,180.7,8.4c-4.2,4.7-6.5,10.7-6.5,17v184.7l-10.1,2c-4.6,0.9-7.6,5.4-6.7,10
                c0,0.2,0.1,0.4,0.2,0.7l7.8,27.5c2.2,7.8,6.3,15.1,11.8,21.1c-2.8,2.4-5.1,5.3-7,8.5c-16.3-0.2-29.8,12.9-30,29.2
                c0,1.8,0.1,3.5,0.4,5.2c-23.5,8.8-44.3,23.5-60.3,42.8c-18.2-4.4-36.5,6.7-41,24.9c-3.1,12.6,1.3,25.9,11.4,34.2
                c-1.9,8.1-3.1,16.4-3.6,24.7H13c-4.7,0-8.5,3.8-8.5,8.5c0,32.8,26.6,59.3,59.4,59.4h339.3c32.8,0,59.3-26.6,59.4-59.4
                c0-4.7-3.8-8.5-8.5-8.5h-34.2c-0.4-6.7-1.3-13.5-2.6-20.1c-0.1-0.5-0.2-1-0.3-1.5c-2.6-12.4-6.9-24.3-12.6-35.6
                c-0.2-0.5-0.4-0.9-0.7-1.3c-10.3-19.7-25-36.7-43-49.7c0-0.7,0.1-1.4,0.1-2.1c0-18.7-15.2-33.9-33.9-33.9c-0.9,0-1.9,0-2.8,0.1
                c-4.9-10.5-15.6-17.2-27.2-17.1c-0.7-1.1-1.4-2.2-2.2-3.3c2.5-2.5,4.7-5.3,6.6-8.3l15.9-26.5c2.4-4,1.1-9.2-2.9-11.6
                c-0.9-0.5-1.9-0.9-3-1.1l-18.4-3.1V110.3h17c1.7,0,3.3-0.5,4.7-1.4l23.3-15.5h141.6c4.7,0,8.5-3.8,8.5-8.5V50.9
                C488,46.2,484.2,42.4,479.5,42.4z M233.5,17c4.7,0,8.5,3.8,8.5,8.5v204.8c-2.3,1.7-4.4,3.5-6.3,5.6c-2.8-5.2-6.4-9.8-10.7-13.8
                V25.4C225,20.8,228.8,17,233.5,17z M199.6,17c4.7,0,8.5,3.8,8.5,8.5v186.2c-5.4-2.1-11.2-3.2-17-3.4V25.4
                C191.1,20.8,194.9,17,199.6,17z M181.7,245.7l-5.3-18.6l6.2-1.2c19.2-3.8,38,8.6,41.8,27.9c0.5,2.3,0.7,4.6,0.7,7v3.4
                c-3,0.8-5.8,1.9-8.5,3.5c-5.2-3-11-4.5-17-4.5c-2.1,0-4.1,0.2-6.1,0.6C187.8,258.9,183.7,252.7,181.7,245.7z M294.9,342.2
                c-6.4,2-13.9,3.5-25.7,3.5c-16.3,0-24.3-2.9-32.8-5.9c-9.4-3.4-19.2-6.9-38.5-6.9s-29,3.5-38.5,6.9c-8.4,3-16.4,5.9-32.8,5.9
                c-3.2,0-6.1-0.1-8.6-0.3c10.7-7.6,22.6-13.4,35.2-17.3c0.4-0.1,0.9-0.2,1.3-0.4c11.9-3.5,24.2-5.3,36.6-5.3h84.8
                c5.9,0,11.9,0.4,17.8,1.2C292.3,329.8,292.7,336.2,294.9,342.2L294.9,342.2z M126.6,396.6c19.3,0,29-3.5,38.5-6.9
                c8.4-3,16.4-5.9,32.8-5.9s24.3,2.9,32.8,5.9c9.4,3.4,19.2,6.9,38.5,6.9c19.3,0,29-3.5,38.5-6.9c8.4-3,16.4-5.9,32.8-5.9
                s24.3,2.9,32.8,5.9c5.7,2.2,11.6,3.9,17.6,5.1c2.8,5.8,5.1,11.7,6.9,17.9c-6.4-1-12.8-2.6-18.8-5c-9.4-3.4-19.2-6.9-38.5-6.9
                c-19.3,0-29,3.5-38.5,6.9c-8.4,3-16.4,5.9-32.8,5.9c-2.7,0-5.3-0.1-7.7-0.2c-7.3-5.1-16.3-7.1-25.1-5.6c-9.4-3.4-19.2-6.8-38.5-6.8
                c-19.3,0-29,3.5-38.5,6.9c-8.4,3-16.4,5.9-32.8,5.9c-12.4,0-20-1.6-26.6-3.7c3.2-4.4,5.2-9.6,5.9-15
                C112.8,396,119.7,396.6,126.6,396.6z M225,441.1c0-9.4,7.6-17,17-17s17,7.6,17,17H225z M72.4,373.2c9.4,0,17,7.6,17,16.9
                s-7.6,17-16.9,17c-2.5,0-4.9-0.5-7.2-1.6c-0.5-0.4-1.1-0.7-1.7-0.9c-8-4.8-10.6-15.2-5.8-23.3C60.9,376.3,66.4,373.2,72.4,373.2z
                M66.5,423.6c5.8,1,11.8,0.5,17.3-1.5c1.4,0.5,2.9,1,4.3,1.5c9.4,3.4,19.2,6.9,38.5,6.9s29-3.5,38.5-6.9c8.4-3,16.4-5.9,32.8-5.9
                c6.1-0.1,12.1,0.4,18.1,1.6c-5.1,6.1-7.9,13.8-7.9,21.8H64.2C64.5,435.2,65.3,429.4,66.5,423.6z M403.2,492H63.9
                c-20.1,0-37.5-14.2-41.6-33.9h422.4C440.7,477.8,423.3,492,403.2,492z M275.9,441.1c0-3.6-0.6-7.2-1.7-10.7
                c16-0.6,24.9-3.7,33.4-6.8c8.4-3,16.4-5.9,32.8-5.9s24.3,2.9,32.8,5.9c7.3,2.6,15.4,5.5,28.5,6.5c0.6,3.6,1,7.3,1.2,11H275.9z
                M377.8,373.3c-9.1-3.2-18.8-6.5-37.4-6.5c-19.3,0-29,3.5-38.5,6.9c-8.4,3-16.4,5.9-32.8,5.9s-24.3-2.9-32.8-5.9
                c-9.4-3.4-19.2-6.9-38.5-6.9s-29,3.5-38.5,6.9c-8.4,3-16.4,5.9-32.8,5.9c-11.1,0-18.1-1.4-23.1-2.7c-1.8-4.3-4.6-8.2-8-11.4
                c1.7-2,3.5-3.9,5.3-5.7c8.4,2,17.1,3,25.7,2.8c19.3,0,29-3.5,38.5-6.9c8.4-3,16.4-5.9,32.8-5.9s24.3,2.9,32.8,5.9
                c9.4,3.4,19.2,6.9,38.5,6.9c17.5,0,27.1-2.9,35.8-5.9c14.3,12.1,35.7,10.3,47.7-3.9c0.8-0.9,1.5-1.9,2.2-2.9
                C363.5,356.6,371.2,364.5,377.8,373.3z M343.8,330.8c0,9.4-7.6,17-17,17s-17-7.6-17-17s7.6-17,17-17
                C336.2,313.9,343.8,321.5,343.8,330.8z M297.1,296.9c4.3,0,8.3,2.2,10.7,5.8c-2.1,1.4-4.1,3.1-5.8,5c-8.6-1.6-17.3-2.4-26.1-2.4
                h-84.8c-11.4,0-22.8,1.3-33.9,4c0.1-7,5.8-12.6,12.8-12.5c1.1,0,2.1,0.2,3.2,0.4c4.4,1.2,8.9-1.3,10.3-5.6
                c2.9-8.9,12.4-13.8,21.3-11c2.3,0.7,4.4,1.9,6.1,3.5c3.2,2.9,8.1,2.9,11.3,0c6.4-5.8,16.2-5.8,22.6,0c3.2,2.9,8.1,2.9,11.3,0
                c7-6.2,17.7-5.6,24,1.3c1.6,1.8,2.8,3.9,3.5,6.1c1.4,4.3,5.9,6.8,10.3,5.6C294.9,297,296,296.9,297.1,296.9z M286.7,259.6
                c-1.4,2.4-3.3,4.5-5.4,6.3c-9.9-4.4-21.4-3.8-30.8,1.6c-2.7-1.5-5.5-2.7-8.5-3.5v-0.5c0-13.5,10.9-24.4,24.4-24.4
                c1.3,0,2.7,0.1,4,0.3l25.8,4.3L286.7,259.6z M273.2,222.8c-4.7-0.8-9.5-0.7-14.2,0.1V25.4c0-4.7,3.8-8.5,8.5-8.5s8.5,3.8,8.5,8.5
                v197.8L273.2,222.8z M471,76.3H335.3c-1.7,0-3.3,0.5-4.7,1.4l-23.3,15.5h-14.4V42.4h14.4L330.6,58c1.4,0.9,3,1.4,4.7,1.4H471V76.3z
                "/>
        </g>
    </symbol>

    <symbol id="desert" viewBox="0 0 512 512">
        <g id="Page-1">
            <g id="_x30_30---Cake" transform="translate(0 -1)">
                <path id="Shape" style="fill:#3E6394;" d="M473.6,344.1l-66.6-214.6c-1.7-23.6-35.4-43.2-89.3-52.1c-6.7-16.2-24.5-24.8-41.4-20
                    c3.4-13.1,12.3-24.2,24.4-30.3c16.5-7.7,35.8-6.2,50.8,4.1c3.8,2.7,9,1.9,11.7-1.9c2.7-3.8,1.9-9-1.9-11.7
                    C344,5,321.8,1.7,301.6,8.6c-20.1,7-35.6,23.3-41.5,43.8c-24.9-20.1-53.1-4.5-60.8,24.1c-45.7,6.9-92.2,24-94.2,52.8L38.4,344.1
                    c-22.4,16.5-34.3,35.8-34.3,55.8C4.2,461,114.8,509,256,509S507.8,461,507.8,399.8C507.8,379.8,495.9,360.6,473.6,344.1
                    L473.6,344.1z M93.9,221.9c7.2,5.8,11.4,14.5,11.5,23.7c0.3,17.7-8.8,35.7-11.3,55.3c-1.3,9.7-0.6,31.2,11,43
                    c11.3,11.5,31.7,10.9,42.9-9.4c6.9-12.7,7.8-28,15.7-37c2.5-3.2,6.4-4.9,10.4-4.4s7.5,2.9,9.2,6.5c10.5,18.7-14,43.7-11.5,71.2
                    c0.7,11.3,7,21.4,16.9,26.9c9.9,5.5,21.9,5.5,31.8,0c37.6-18.8,18.8-69.5,31.5-74.3c3-0.9,6.2-0.5,8.8,1.1
                    c18.5,10.1,6.9,45.4,31.5,64.2c9.2,6.7,21.1,8.6,32,5.2c10.9-3.4,19.5-11.8,23.3-22.5c7.7-23.4-10.8-44.2-13-62.1
                    c-1.3-6.8,1.6-13.8,7.3-17.7c4.5-1.1,9.2,0,12.8,3c10.5,7.5,15.9,24.4,33,34.1c8.5,5.3,19.3,5.1,27.7-0.3
                    c8.4-5.4,12.9-15.2,11.6-25.1c-0.8-15.2-11.8-28-12.8-38.9c-0.5-6.6,2.1-13.1,7-17.5c1.2-0.9,2.4-1.7,3.7-2.4l40.8,131.4
                    c-2.1,31.5-87.7,66-209.9,66s-207.8-34.5-209.8-66L93.9,221.9z M396.8,153.4l23.2,74.6c-14.8,6.3-23.9,21.5-22.4,37.6
                    c1.4,15.5,12.1,26.9,12.7,38.3c0.4,8.7-5.9,14.8-14.2,10c-13.1-7.4-18.1-23.6-31.4-33.1c-8.1-6.5-19-8.4-28.9-5
                    c-13,6.6-20.3,20.9-17.8,35.3c2.5,20.7,18.9,39.3,13.7,54.8c-2.1,5.6-6.6,10-12.3,11.8s-11.9,0.9-16.8-2.6
                    c-18.1-13.8-6-50.5-33.6-65.6c-7-4-15.4-4.7-23-2c-29.6,11.2-3.4,60.2-32.9,75c-6.1,3.3-13.6,2.6-19.1-1.6
                    c-14.3-13.1,3.3-40.1,7.4-58.8c9.2-41.9-30.2-58.5-50.2-35.8c-6,7.5-10.2,16.3-12.4,25.7c-2.2,7.3-6.3,21.5-14.4,22.4
                    c-2.6,0.5-5.3-0.4-7.1-2.3c-5.7-8.5-8-18.9-6.4-29c2.4-18.7,11.8-36.4,11.4-57.8c-0.1-16.4-8.9-31.6-23.2-39.6l16.2-52.3
                    C162.4,201.5,348.9,202.3,396.8,153.4L396.8,153.4z M239.9,60.4c7.5,2.1,13.7,7.1,17.3,14c1,2.3,3.1,4.1,5.6,4.7
                    c2.5,0.7,5.1,0.1,7.2-1.4c6.5-4.3,14.4-5.7,22-3.8c11.6,3,14.3,18.4,11.3,30c-4.5,15.1-15.2,27.6-29.4,34.5
                    c-12.5,1.1-25,1.4-37.5,0.9C197.1,104.4,217,54.6,239.9,60.4L239.9,60.4z M197.4,93.8c0.1,15.7,5.2,31,14.5,43.7
                    c-4.3,0.1-7.7,3.5-8,7.8c-0.3,4.3,2.7,8,6.9,8.8c35.1,4.4,70.7,2.8,105.2-4.8c3-0.6,5.4-2.7,6.4-5.6s0.3-6.1-1.8-8.3
                    s-5.2-3.2-8.1-2.5c-2.2,0.5-4.4,0.9-6.6,1.3c9.5-10.9,14.8-24.7,15.2-39.1c45.5,8.5,69.2,24.2,69.2,36.3c0,17.5-51.1,42-134.3,42
                    s-134.3-24.4-134.3-42C121.7,118.6,148.1,101.8,197.4,93.8L197.4,93.8z M256,492.2c-127.4,0-235.1-42.3-235.1-92.3
                    c0.3-8.6,3.2-16.9,8.5-23.7c2.1,53.6,117.7,82.5,226.6,82.5s224.4-28.9,226.6-82.5c5.3,6.8,8.2,15.1,8.5,23.7
                    C491.1,449.9,383.4,492.2,256,492.2z"/>
            </g>
        </g>
    </symbol>
</svg>

